STARTFONT 2.1
FONT -FontForge-Liberation Sans-Book-R-Normal-Sans-16-150-75-75-P-93-ISO10646-1
SIZE 15 75 75
FONTBOUNDINGBOX 17 20 -2 -5
COMMENT "Generated by fontforge, http://fontforge.sourceforge.net"
COMMENT "Digitized data © 2007 Ascender Corporation. All rights reserved."
STARTPROPERTIES 39
FOUNDRY "FontForge"
FAMILY_NAME "Liberation Sans"
WEIGHT_NAME "Book"
SLANT "R"
SETWIDTH_NAME "Normal"
ADD_STYLE_NAME "Sans"
PIXEL_SIZE 16
POINT_SIZE 150
RESOLUTION_X 75
RESOLUTION_Y 75
SPACING "P"
AVERAGE_WIDTH 93
CHARSET_REGISTRY "ISO10646"
CHARSET_ENCODING "1"
FONTNAME_REGISTRY ""
CHARSET_COLLECTIONS "ASCII ISOLatin1Encoding ISO8859-2 ISO8859-5 ISO8859-7 ISO8859-9 ISO8859-4 Symbol ISO10646-1"
FONT_NAME "LiberationSans"
FACE_NAME "Liberation Sans"
FONT_VERSION "1.00"
FONT_ASCENT 13
FONT_DESCENT 3
UNDERLINE_POSITION -2
UNDERLINE_THICKNESS 2
X_HEIGHT 8
CAP_HEIGHT 10
RAW_ASCENT 799
RAW_DESCENT 200
NORM_SPACE 4
RELATIVE_WEIGHT 40
RELATIVE_SETWIDTH 50
SUPERSCRIPT_X 0
SUPERSCRIPT_Y 7
SUPERSCRIPT_SIZE 10
SUBSCRIPT_X 0
SUBSCRIPT_Y 2
SUBSCRIPT_SIZE 10
FIGURE_WIDTH 9
AVG_LOWERCASE_WIDTH 82
AVG_UPPERCASE_WIDTH 110
ENDPROPERTIES
CHARS 668
STARTCHAR space
ENCODING 32
SWIDTH 277 0
DWIDTH 4 0
BBX 1 1 0 0
BITMAP
00
ENDCHAR
STARTCHAR exclam
ENCODING 33
SWIDTH 277 0
DWIDTH 4 0
BBX 1 11 2 0
BITMAP
80
80
80
80
80
80
80
80
00
80
80
ENDCHAR
STARTCHAR quotedbl
ENCODING 34
SWIDTH 354 0
DWIDTH 6 0
BBX 4 3 1 8
BITMAP
90
90
90
ENDCHAR
STARTCHAR numbersign
ENCODING 35
SWIDTH 556 0
DWIDTH 9 0
BBX 9 11 0 0
BITMAP
1100
1100
1100
FF80
2200
2200
2200
FF80
4400
4400
4400
ENDCHAR
STARTCHAR dollar
ENCODING 36
SWIDTH 556 0
DWIDTH 9 0
BBX 7 13 1 -1
BITMAP
10
7C
D2
90
90
50
38
14
12
12
92
7C
10
ENDCHAR
STARTCHAR percent
ENCODING 37
SWIDTH 889 0
DWIDTH 14 0
BBX 12 11 1 0
BITMAP
7040
8880
8880
8900
8A00
74E0
0510
0910
1110
1110
20E0
ENDCHAR
STARTCHAR ampersand
ENCODING 38
SWIDTH 666 0
DWIDTH 11 0
BBX 9 11 1 0
BITMAP
1C00
2200
2200
2400
2800
5100
8900
8A00
8600
8600
7980
ENDCHAR
STARTCHAR quotesingle
ENCODING 39
SWIDTH 190 0
DWIDTH 3 0
BBX 1 3 1 8
BITMAP
80
80
80
ENDCHAR
STARTCHAR parenleft
ENCODING 40
SWIDTH 333 0
DWIDTH 5 0
BBX 4 15 1 -3
BITMAP
10
20
40
40
80
80
80
80
80
80
80
40
40
20
10
ENDCHAR
STARTCHAR parenright
ENCODING 41
SWIDTH 333 0
DWIDTH 5 0
BBX 4 15 0 -3
BITMAP
80
40
20
20
10
10
10
10
10
10
10
20
20
40
80
ENDCHAR
STARTCHAR asterisk
ENCODING 42
SWIDTH 389 0
DWIDTH 6 0
BBX 5 6 1 5
BITMAP
20
20
F8
20
50
88
ENDCHAR
STARTCHAR plus
ENCODING 43
SWIDTH 583 0
DWIDTH 9 0
BBX 7 7 1 2
BITMAP
10
10
10
FE
10
10
10
ENDCHAR
STARTCHAR comma
ENCODING 44
SWIDTH 277 0
DWIDTH 4 0
BBX 2 4 1 -2
BITMAP
40
40
40
80
ENDCHAR
STARTCHAR hyphen
ENCODING 45
SWIDTH 333 0
DWIDTH 5 0
BBX 3 1 1 4
BITMAP
E0
ENDCHAR
STARTCHAR period
ENCODING 46
SWIDTH 277 0
DWIDTH 4 0
BBX 1 2 2 0
BITMAP
80
80
ENDCHAR
STARTCHAR slash
ENCODING 47
SWIDTH 277 0
DWIDTH 4 0
BBX 4 12 0 0
BITMAP
10
10
20
20
20
20
40
40
40
40
80
80
ENDCHAR
STARTCHAR zero
ENCODING 48
SWIDTH 556 0
DWIDTH 9 0
BBX 7 11 1 0
BITMAP
38
44
82
82
82
82
82
82
82
44
38
ENDCHAR
STARTCHAR one
ENCODING 49
SWIDTH 556 0
DWIDTH 9 0
BBX 7 11 1 0
BITMAP
30
50
90
10
10
10
10
10
10
10
FE
ENDCHAR
STARTCHAR two
ENCODING 50
SWIDTH 556 0
DWIDTH 9 0
BBX 7 11 1 0
BITMAP
78
84
02
02
02
04
08
30
40
80
FE
ENDCHAR
STARTCHAR three
ENCODING 51
SWIDTH 556 0
DWIDTH 9 0
BBX 7 11 1 0
BITMAP
78
84
02
02
04
18
04
02
02
84
78
ENDCHAR
STARTCHAR four
ENCODING 52
SWIDTH 556 0
DWIDTH 9 0
BBX 8 11 1 0
BITMAP
04
0C
14
24
24
44
84
FF
04
04
04
ENDCHAR
STARTCHAR five
ENCODING 53
SWIDTH 556 0
DWIDTH 9 0
BBX 7 11 1 0
BITMAP
FE
80
80
80
B8
C4
02
02
02
84
78
ENDCHAR
STARTCHAR six
ENCODING 54
SWIDTH 556 0
DWIDTH 9 0
BBX 7 11 1 0
BITMAP
3C
42
80
80
B8
C4
82
82
82
44
38
ENDCHAR
STARTCHAR seven
ENCODING 55
SWIDTH 556 0
DWIDTH 9 0
BBX 7 11 1 0
BITMAP
FE
02
04
08
08
10
10
10
20
20
20
ENDCHAR
STARTCHAR eight
ENCODING 56
SWIDTH 556 0
DWIDTH 9 0
BBX 7 11 1 0
BITMAP
38
44
82
82
44
38
44
82
82
44
38
ENDCHAR
STARTCHAR nine
ENCODING 57
SWIDTH 556 0
DWIDTH 9 0
BBX 7 11 1 0
BITMAP
38
44
82
82
82
46
3A
02
02
84
78
ENDCHAR
STARTCHAR colon
ENCODING 58
SWIDTH 277 0
DWIDTH 4 0
BBX 1 9 2 0
BITMAP
80
80
00
00
00
00
00
80
80
ENDCHAR
STARTCHAR semicolon
ENCODING 59
SWIDTH 277 0
DWIDTH 4 0
BBX 2 11 1 -2
BITMAP
40
40
00
00
00
00
00
40
40
40
80
ENDCHAR
STARTCHAR less
ENCODING 60
SWIDTH 583 0
DWIDTH 9 0
BBX 7 7 1 2
BITMAP
02
1C
60
80
E0
1C
02
ENDCHAR
STARTCHAR equal
ENCODING 61
SWIDTH 583 0
DWIDTH 9 0
BBX 7 5 1 3
BITMAP
FE
00
00
00
FE
ENDCHAR
STARTCHAR greater
ENCODING 62
SWIDTH 583 0
DWIDTH 9 0
BBX 7 7 1 2
BITMAP
80
70
0C
02
0C
70
80
ENDCHAR
STARTCHAR question
ENCODING 63
SWIDTH 556 0
DWIDTH 9 0
BBX 7 11 1 0
BITMAP
38
44
82
02
02
04
08
10
00
10
10
ENDCHAR
STARTCHAR at
ENCODING 64
SWIDTH 1015 0
DWIDTH 16 0
BBX 14 14 1 -2
BITMAP
07E0
1810
2008
43AC
4464
8844
9044
9044
90C4
9148
CE30
4000
3030
0FC0
ENDCHAR
STARTCHAR A
ENCODING 65
SWIDTH 666 0
DWIDTH 11 0
BBX 11 11 0 0
BITMAP
0400
0C00
0A00
0A00
1100
1100
2080
3F80
4040
4040
8020
ENDCHAR
STARTCHAR B
ENCODING 66
SWIDTH 666 0
DWIDTH 11 0
BBX 9 11 1 0
BITMAP
FF00
8080
8080
8080
8080
FF00
8080
8080
8080
8080
FF00
ENDCHAR
STARTCHAR C
ENCODING 67
SWIDTH 722 0
DWIDTH 12 0
BBX 10 11 1 0
BITMAP
1F00
6080
4040
8000
8000
8000
8000
8000
4040
6080
1F00
ENDCHAR
STARTCHAR D
ENCODING 68
SWIDTH 722 0
DWIDTH 12 0
BBX 10 11 1 0
BITMAP
FE00
8180
8080
8040
8040
8040
8040
8040
8080
8180
FE00
ENDCHAR
STARTCHAR E
ENCODING 69
SWIDTH 666 0
DWIDTH 11 0
BBX 9 11 1 0
BITMAP
FF80
8000
8000
8000
8000
FF00
8000
8000
8000
8000
FF80
ENDCHAR
STARTCHAR F
ENCODING 70
SWIDTH 610 0
DWIDTH 10 0
BBX 8 11 1 0
BITMAP
FF
80
80
80
80
FE
80
80
80
80
80
ENDCHAR
STARTCHAR G
ENCODING 71
SWIDTH 777 0
DWIDTH 12 0
BBX 10 11 1 0
BITMAP
1F00
6080
4040
8000
8000
8000
83C0
8040
4040
60C0
1F00
ENDCHAR
STARTCHAR H
ENCODING 72
SWIDTH 722 0
DWIDTH 12 0
BBX 9 11 1 0
BITMAP
8080
8080
8080
8080
8080
FF80
8080
8080
8080
8080
8080
ENDCHAR
STARTCHAR I
ENCODING 73
SWIDTH 277 0
DWIDTH 4 0
BBX 1 11 1 0
BITMAP
80
80
80
80
80
80
80
80
80
80
80
ENDCHAR
STARTCHAR J
ENCODING 74
SWIDTH 500 0
DWIDTH 8 0
BBX 6 11 0 0
BITMAP
1C
04
04
04
04
04
04
04
84
84
78
ENDCHAR
STARTCHAR K
ENCODING 75
SWIDTH 666 0
DWIDTH 11 0
BBX 10 11 1 0
BITMAP
8100
8200
8400
8800
9000
E800
8400
8200
8100
8080
8040
ENDCHAR
STARTCHAR L
ENCODING 76
SWIDTH 556 0
DWIDTH 9 0
BBX 7 11 1 0
BITMAP
80
80
80
80
80
80
80
80
80
80
FE
ENDCHAR
STARTCHAR M
ENCODING 77
SWIDTH 833 0
DWIDTH 13 0
BBX 11 11 1 0
BITMAP
8020
C060
C060
A0A0
A0A0
9120
9120
8A20
8A20
8420
8420
ENDCHAR
STARTCHAR N
ENCODING 78
SWIDTH 722 0
DWIDTH 12 0
BBX 9 11 1 0
BITMAP
8080
C080
A080
9080
9080
8880
8480
8480
8280
8180
8080
ENDCHAR
STARTCHAR O
ENCODING 79
SWIDTH 777 0
DWIDTH 12 0
BBX 10 11 1 0
BITMAP
1E00
6180
4080
8040
8040
8040
8040
8040
4080
6180
1E00
ENDCHAR
STARTCHAR P
ENCODING 80
SWIDTH 666 0
DWIDTH 11 0
BBX 9 11 1 0
BITMAP
FE00
8180
8080
8080
8080
FF00
8000
8000
8000
8000
8000
ENDCHAR
STARTCHAR Q
ENCODING 81
SWIDTH 777 0
DWIDTH 12 0
BBX 10 14 1 -3
BITMAP
1E00
6180
4080
8040
8040
8040
8040
8040
4080
6180
1E00
0400
0200
0180
ENDCHAR
STARTCHAR R
ENCODING 82
SWIDTH 722 0
DWIDTH 12 0
BBX 9 11 1 0
BITMAP
FF00
8080
8080
8080
8080
FF00
8800
8400
8200
8100
8080
ENDCHAR
STARTCHAR S
ENCODING 83
SWIDTH 666 0
DWIDTH 11 0
BBX 9 11 1 0
BITMAP
3E00
4100
8080
8000
6000
1E00
0100
0080
8080
4100
3E00
ENDCHAR
STARTCHAR T
ENCODING 84
SWIDTH 610 0
DWIDTH 10 0
BBX 9 11 0 0
BITMAP
FF80
0800
0800
0800
0800
0800
0800
0800
0800
0800
0800
ENDCHAR
STARTCHAR U
ENCODING 85
SWIDTH 722 0
DWIDTH 12 0
BBX 9 11 1 0
BITMAP
8080
8080
8080
8080
8080
8080
8080
8080
8080
4100
3E00
ENDCHAR
STARTCHAR V
ENCODING 86
SWIDTH 666 0
DWIDTH 11 0
BBX 11 11 0 0
BITMAP
8020
4040
4040
2080
2080
1100
1100
0A00
0A00
0400
0400
ENDCHAR
STARTCHAR W
ENCODING 87
SWIDTH 943 0
DWIDTH 15 0
BBX 15 11 0 0
BITMAP
8102
8102
4284
4284
4444
4444
2828
2828
2828
1010
1010
ENDCHAR
STARTCHAR X
ENCODING 88
SWIDTH 666 0
DWIDTH 11 0
BBX 11 11 0 0
BITMAP
8020
4040
2080
1100
0A00
0400
0A00
1100
2080
4040
8020
ENDCHAR
STARTCHAR Y
ENCODING 89
SWIDTH 666 0
DWIDTH 11 0
BBX 9 11 0 0
BITMAP
8080
4100
2200
2200
1400
0800
0800
0800
0800
0800
0800
ENDCHAR
STARTCHAR Z
ENCODING 90
SWIDTH 610 0
DWIDTH 10 0
BBX 7 11 1 0
BITMAP
FE
02
04
08
08
10
20
20
40
80
FE
ENDCHAR
STARTCHAR bracketleft
ENCODING 91
SWIDTH 277 0
DWIDTH 4 0
BBX 3 15 1 -3
BITMAP
E0
80
80
80
80
80
80
80
80
80
80
80
80
80
E0
ENDCHAR
STARTCHAR backslash
ENCODING 92
SWIDTH 277 0
DWIDTH 4 0
BBX 4 12 0 0
BITMAP
80
80
40
40
40
40
20
20
20
20
10
10
ENDCHAR
STARTCHAR bracketright
ENCODING 93
SWIDTH 277 0
DWIDTH 4 0
BBX 3 15 0 -3
BITMAP
E0
20
20
20
20
20
20
20
20
20
20
20
20
20
E0
ENDCHAR
STARTCHAR asciicircum
ENCODING 94
SWIDTH 469 0
DWIDTH 8 0
BBX 7 6 0 5
BITMAP
10
28
28
44
44
82
ENDCHAR
STARTCHAR underscore
ENCODING 95
SWIDTH 556 0
DWIDTH 9 0
BBX 9 1 0 -3
BITMAP
FF80
ENDCHAR
STARTCHAR grave
ENCODING 96
SWIDTH 333 0
DWIDTH 5 0
BBX 3 3 1 10
BITMAP
80
40
20
ENDCHAR
STARTCHAR a
ENCODING 97
SWIDTH 556 0
DWIDTH 9 0
BBX 8 9 1 0
BITMAP
7C
86
02
02
7E
82
82
86
79
ENDCHAR
STARTCHAR b
ENCODING 98
SWIDTH 556 0
DWIDTH 9 0
BBX 7 12 1 0
BITMAP
80
80
80
B8
C4
82
82
82
82
82
C4
B8
ENDCHAR
STARTCHAR c
ENCODING 99
SWIDTH 500 0
DWIDTH 8 0
BBX 6 9 1 0
BITMAP
38
44
80
80
80
80
80
44
38
ENDCHAR
STARTCHAR d
ENCODING 100
SWIDTH 556 0
DWIDTH 9 0
BBX 7 12 1 0
BITMAP
02
02
02
3A
46
82
82
82
82
82
46
3A
ENDCHAR
STARTCHAR e
ENCODING 101
SWIDTH 556 0
DWIDTH 9 0
BBX 7 9 1 0
BITMAP
38
44
82
82
FE
80
80
42
3C
ENDCHAR
STARTCHAR f
ENCODING 102
SWIDTH 277 0
DWIDTH 4 0
BBX 4 12 0 0
BITMAP
30
40
40
F0
40
40
40
40
40
40
40
40
ENDCHAR
STARTCHAR g
ENCODING 103
SWIDTH 556 0
DWIDTH 9 0
BBX 7 12 1 -3
BITMAP
3A
46
82
82
82
82
82
46
3A
02
84
78
ENDCHAR
STARTCHAR h
ENCODING 104
SWIDTH 556 0
DWIDTH 9 0
BBX 6 12 1 0
BITMAP
80
80
80
B8
C4
84
84
84
84
84
84
84
ENDCHAR
STARTCHAR i
ENCODING 105
SWIDTH 222 0
DWIDTH 4 0
BBX 1 12 1 0
BITMAP
80
00
00
80
80
80
80
80
80
80
80
80
ENDCHAR
STARTCHAR j
ENCODING 106
SWIDTH 222 0
DWIDTH 4 0
BBX 2 15 0 -3
BITMAP
40
00
00
40
40
40
40
40
40
40
40
40
40
40
80
ENDCHAR
STARTCHAR k
ENCODING 107
SWIDTH 500 0
DWIDTH 8 0
BBX 7 12 1 0
BITMAP
80
80
80
84
88
90
A0
E0
90
88
84
82
ENDCHAR
STARTCHAR l
ENCODING 108
SWIDTH 222 0
DWIDTH 4 0
BBX 1 12 1 0
BITMAP
80
80
80
80
80
80
80
80
80
80
80
80
ENDCHAR
STARTCHAR m
ENCODING 109
SWIDTH 833 0
DWIDTH 13 0
BBX 11 9 1 0
BITMAP
B9C0
C620
8420
8420
8420
8420
8420
8420
8420
ENDCHAR
STARTCHAR n
ENCODING 110
SWIDTH 556 0
DWIDTH 9 0
BBX 6 9 1 0
BITMAP
B8
C4
84
84
84
84
84
84
84
ENDCHAR
STARTCHAR o
ENCODING 111
SWIDTH 556 0
DWIDTH 9 0
BBX 7 9 1 0
BITMAP
38
44
82
82
82
82
82
44
38
ENDCHAR
STARTCHAR p
ENCODING 112
SWIDTH 556 0
DWIDTH 9 0
BBX 7 12 1 -3
BITMAP
B8
C4
82
82
82
82
82
C4
B8
80
80
80
ENDCHAR
STARTCHAR q
ENCODING 113
SWIDTH 556 0
DWIDTH 9 0
BBX 7 12 1 -3
BITMAP
3A
46
82
82
82
82
82
46
3A
02
02
02
ENDCHAR
STARTCHAR r
ENCODING 114
SWIDTH 333 0
DWIDTH 5 0
BBX 4 9 1 0
BITMAP
B0
C0
80
80
80
80
80
80
80
ENDCHAR
STARTCHAR s
ENCODING 115
SWIDTH 500 0
DWIDTH 8 0
BBX 6 9 1 0
BITMAP
78
84
80
80
78
04
04
84
78
ENDCHAR
STARTCHAR t
ENCODING 116
SWIDTH 277 0
DWIDTH 4 0
BBX 4 11 0 0
BITMAP
40
40
F0
40
40
40
40
40
40
40
30
ENDCHAR
STARTCHAR u
ENCODING 117
SWIDTH 556 0
DWIDTH 9 0
BBX 6 9 1 0
BITMAP
84
84
84
84
84
84
84
8C
74
ENDCHAR
STARTCHAR v
ENCODING 118
SWIDTH 500 0
DWIDTH 8 0
BBX 7 9 0 0
BITMAP
82
82
44
44
44
28
28
28
10
ENDCHAR
STARTCHAR w
ENCODING 119
SWIDTH 722 0
DWIDTH 12 0
BBX 9 9 1 0
BITMAP
8880
8880
9480
5500
5500
5500
5500
2200
2200
ENDCHAR
STARTCHAR x
ENCODING 120
SWIDTH 500 0
DWIDTH 8 0
BBX 7 9 0 0
BITMAP
82
44
44
28
10
28
64
44
82
ENDCHAR
STARTCHAR y
ENCODING 121
SWIDTH 500 0
DWIDTH 8 0
BBX 7 12 0 -3
BITMAP
82
82
44
44
44
28
28
10
10
10
20
C0
ENDCHAR
STARTCHAR z
ENCODING 122
SWIDTH 500 0
DWIDTH 8 0
BBX 7 9 0 0
BITMAP
FE
02
04
08
10
20
40
80
FE
ENDCHAR
STARTCHAR braceleft
ENCODING 123
SWIDTH 333 0
DWIDTH 5 0
BBX 5 15 0 -3
BITMAP
18
20
20
20
20
20
20
C0
60
20
20
20
20
20
18
ENDCHAR
STARTCHAR bar
ENCODING 124
SWIDTH 259 0
DWIDTH 4 0
BBX 1 15 1 -3
BITMAP
80
80
80
80
80
80
80
80
80
80
80
80
80
80
80
ENDCHAR
STARTCHAR braceright
ENCODING 125
SWIDTH 333 0
DWIDTH 5 0
BBX 5 15 0 -3
BITMAP
C0
20
20
20
20
20
20
18
30
20
20
20
20
20
C0
ENDCHAR
STARTCHAR asciitilde
ENCODING 126
SWIDTH 583 0
DWIDTH 9 0
BBX 7 3 1 4
BITMAP
60
92
0C
ENDCHAR
STARTCHAR space.dup1
ENCODING 160
SWIDTH 277 0
DWIDTH 4 0
BBX 1 1 0 0
BITMAP
00
ENDCHAR
STARTCHAR exclamdown
ENCODING 161
SWIDTH 333 0
DWIDTH 5 0
BBX 1 12 3 -3
BITMAP
80
80
00
00
80
80
80
80
80
80
80
80
ENDCHAR
STARTCHAR cent
ENCODING 162
SWIDTH 556 0
DWIDTH 9 0
BBX 7 11 1 0
BITMAP
10
3C
42
80
80
80
80
80
42
3C
10
ENDCHAR
STARTCHAR sterling
ENCODING 163
SWIDTH 556 0
DWIDTH 9 0
BBX 7 11 1 0
BITMAP
38
44
40
40
40
F8
40
40
40
82
FC
ENDCHAR
STARTCHAR currency
ENCODING 164
SWIDTH 556 0
DWIDTH 9 0
BBX 7 7 1 2
BITMAP
BA
44
82
82
82
44
BA
ENDCHAR
STARTCHAR yen
ENCODING 165
SWIDTH 556 0
DWIDTH 9 0
BBX 9 11 0 0
BITMAP
8080
4100
2200
1400
1400
7F00
0800
7F00
0800
0800
0800
ENDCHAR
STARTCHAR brokenbar
ENCODING 166
SWIDTH 259 0
DWIDTH 4 0
BBX 1 15 1 -3
BITMAP
80
80
80
80
80
80
00
00
00
80
80
80
80
80
80
ENDCHAR
STARTCHAR section
ENCODING 167
SWIDTH 556 0
DWIDTH 9 0
BBX 7 13 1 -1
BITMAP
7C
82
80
80
7C
82
82
82
7C
06
02
82
7C
ENDCHAR
STARTCHAR dieresis
ENCODING 168
SWIDTH 333 0
DWIDTH 5 0
BBX 3 1 1 11
BITMAP
A0
ENDCHAR
STARTCHAR copyright
ENCODING 169
SWIDTH 736 0
DWIDTH 12 0
BBX 11 11 0 0
BITMAP
1F00
2080
4040
8E20
9120
9020
9120
8E20
4040
2080
1F00
ENDCHAR
STARTCHAR ordfeminine
ENCODING 170
SWIDTH 370 0
DWIDTH 6 0
BBX 5 6 0 5
BITMAP
E0
10
70
90
90
68
ENDCHAR
STARTCHAR guillemotleft
ENCODING 171
SWIDTH 556 0
DWIDTH 9 0
BBX 7 7 1 1
BITMAP
12
24
48
90
48
24
12
ENDCHAR
STARTCHAR logicalnot
ENCODING 172
SWIDTH 583 0
DWIDTH 9 0
BBX 7 4 1 2
BITMAP
FE
02
02
02
ENDCHAR
STARTCHAR hyphen.dup2
ENCODING 173
SWIDTH 333 0
DWIDTH 5 0
BBX 3 1 1 4
BITMAP
E0
ENDCHAR
STARTCHAR registered
ENCODING 174
SWIDTH 736 0
DWIDTH 12 0
BBX 11 11 0 0
BITMAP
1F00
2080
4040
9E20
9120
9E20
9220
9120
4040
2080
1F00
ENDCHAR
STARTCHAR macron
ENCODING 175
SWIDTH 552 0
DWIDTH 9 0
BBX 9 1 0 11
BITMAP
FF80
ENDCHAR
STARTCHAR degree
ENCODING 176
SWIDTH 399 0
DWIDTH 6 0
BBX 4 4 1 7
BITMAP
60
90
90
60
ENDCHAR
STARTCHAR plusminus
ENCODING 177
SWIDTH 548 0
DWIDTH 9 0
BBX 7 9 1 0
BITMAP
10
10
10
FE
10
10
10
00
FE
ENDCHAR
STARTCHAR uni00B2
ENCODING 178
SWIDTH 333 0
DWIDTH 5 0
BBX 5 7 0 4
BITMAP
70
88
08
10
60
80
F8
ENDCHAR
STARTCHAR uni00B3
ENCODING 179
SWIDTH 333 0
DWIDTH 5 0
BBX 5 7 0 4
BITMAP
70
88
08
30
08
88
70
ENDCHAR
STARTCHAR acute
ENCODING 180
SWIDTH 333 0
DWIDTH 5 0
BBX 3 3 1 10
BITMAP
20
40
80
ENDCHAR
STARTCHAR mu
ENCODING 181
SWIDTH 576 0
DWIDTH 9 0
BBX 8 12 1 -3
BITMAP
82
82
82
82
82
82
82
C6
B9
80
80
80
ENDCHAR
STARTCHAR paragraph
ENCODING 182
SWIDTH 537 0
DWIDTH 9 0
BBX 8 13 1 -2
BITMAP
7F
F2
F2
F2
F2
72
12
12
12
12
12
12
12
ENDCHAR
STARTCHAR periodcentered
ENCODING 183
SWIDTH 277 0
DWIDTH 4 0
BBX 1 2 1 4
BITMAP
80
80
ENDCHAR
STARTCHAR cedilla
ENCODING 184
SWIDTH 333 0
DWIDTH 5 0
BBX 3 4 1 -4
BITMAP
80
C0
20
C0
ENDCHAR
STARTCHAR uni00B9
ENCODING 185
SWIDTH 333 0
DWIDTH 5 0
BBX 5 7 0 4
BITMAP
60
A0
20
20
20
20
F8
ENDCHAR
STARTCHAR ordmasculine
ENCODING 186
SWIDTH 365 0
DWIDTH 6 0
BBX 4 6 0 5
BITMAP
60
90
90
90
90
60
ENDCHAR
STARTCHAR guillemotright
ENCODING 187
SWIDTH 556 0
DWIDTH 9 0
BBX 7 7 1 1
BITMAP
90
48
24
12
24
48
90
ENDCHAR
STARTCHAR onequarter
ENCODING 188
SWIDTH 833 0
DWIDTH 13 0
BBX 12 11 0 0
BITMAP
6040
A080
2080
2100
2120
2260
FCA0
0520
09F0
0820
1020
ENDCHAR
STARTCHAR onehalf
ENCODING 189
SWIDTH 833 0
DWIDTH 13 0
BBX 13 11 0 0
BITMAP
6040
A080
2080
2100
2170
2288
FC08
0410
0860
0880
10F8
ENDCHAR
STARTCHAR threequarters
ENCODING 190
SWIDTH 833 0
DWIDTH 13 0
BBX 12 11 0 0
BITMAP
7040
8880
0880
3100
0920
8A60
74A0
0520
09F0
0820
1020
ENDCHAR
STARTCHAR questiondown
ENCODING 191
SWIDTH 610 0
DWIDTH 10 0
BBX 7 12 2 -3
BITMAP
10
10
00
10
10
20
40
80
80
82
44
38
ENDCHAR
STARTCHAR Agrave
ENCODING 192
SWIDTH 666 0
DWIDTH 11 0
BBX 11 15 0 0
BITMAP
0800
0400
0200
0000
0400
0C00
0A00
0A00
1100
1100
2080
3F80
4040
4040
8020
ENDCHAR
STARTCHAR Aacute
ENCODING 193
SWIDTH 666 0
DWIDTH 11 0
BBX 11 15 0 0
BITMAP
0100
0200
0400
0000
0400
0C00
0A00
0A00
1100
1100
2080
3F80
4040
4040
8020
ENDCHAR
STARTCHAR Acircumflex
ENCODING 194
SWIDTH 666 0
DWIDTH 11 0
BBX 11 15 0 0
BITMAP
0400
0A00
1100
0000
0400
0C00
0A00
0A00
1100
1100
2080
3F80
4040
4040
8020
ENDCHAR
STARTCHAR Atilde
ENCODING 195
SWIDTH 666 0
DWIDTH 11 0
BBX 11 14 0 0
BITMAP
0C80
1300
0000
0400
0C00
0A00
0A00
1100
1100
2080
3F80
4040
4040
8020
ENDCHAR
STARTCHAR Adieresis
ENCODING 196
SWIDTH 666 0
DWIDTH 11 0
BBX 11 13 0 0
BITMAP
0900
0000
0400
0C00
0A00
0A00
1100
1100
2080
3F80
4040
4040
8020
ENDCHAR
STARTCHAR Aring
ENCODING 197
SWIDTH 666 0
DWIDTH 11 0
BBX 11 14 0 0
BITMAP
0600
0900
0900
0600
0C00
0A00
0A00
1100
1100
2080
3F80
4040
4040
8020
ENDCHAR
STARTCHAR AE
ENCODING 198
SWIDTH 1000 0
DWIDTH 16 0
BBX 15 11 0 0
BITMAP
01FE
0280
0480
0480
0880
10FC
1080
3F80
4080
4080
80FE
ENDCHAR
STARTCHAR Ccedilla
ENCODING 199
SWIDTH 722 0
DWIDTH 12 0
BBX 10 15 1 -4
BITMAP
1F00
6080
4040
8000
8000
8000
8000
8000
4040
6080
1F00
0800
0C00
0200
0C00
ENDCHAR
STARTCHAR Egrave
ENCODING 200
SWIDTH 666 0
DWIDTH 11 0
BBX 9 15 1 0
BITMAP
1000
0800
0400
0000
FF80
8000
8000
8000
8000
FF00
8000
8000
8000
8000
FF80
ENDCHAR
STARTCHAR Eacute
ENCODING 201
SWIDTH 666 0
DWIDTH 11 0
BBX 9 15 1 0
BITMAP
0200
0400
0800
0000
FF80
8000
8000
8000
8000
FF00
8000
8000
8000
8000
FF80
ENDCHAR
STARTCHAR Ecircumflex
ENCODING 202
SWIDTH 666 0
DWIDTH 11 0
BBX 9 15 1 0
BITMAP
0800
1400
2200
0000
FF80
8000
8000
8000
8000
FF00
8000
8000
8000
8000
FF80
ENDCHAR
STARTCHAR Edieresis
ENCODING 203
SWIDTH 666 0
DWIDTH 11 0
BBX 9 13 1 0
BITMAP
1200
0000
FF80
8000
8000
8000
8000
FF00
8000
8000
8000
8000
FF80
ENDCHAR
STARTCHAR Igrave
ENCODING 204
SWIDTH 277 0
DWIDTH 4 0
BBX 3 15 0 0
BITMAP
80
40
20
00
40
40
40
40
40
40
40
40
40
40
40
ENDCHAR
STARTCHAR Iacute
ENCODING 205
SWIDTH 277 0
DWIDTH 4 0
BBX 3 15 1 0
BITMAP
20
40
80
00
80
80
80
80
80
80
80
80
80
80
80
ENDCHAR
STARTCHAR Icircumflex
ENCODING 206
SWIDTH 277 0
DWIDTH 4 0
BBX 5 15 -1 0
BITMAP
20
50
88
00
20
20
20
20
20
20
20
20
20
20
20
ENDCHAR
STARTCHAR Idieresis
ENCODING 207
SWIDTH 277 0
DWIDTH 4 0
BBX 4 13 0 0
BITMAP
90
00
40
40
40
40
40
40
40
40
40
40
40
ENDCHAR
STARTCHAR Eth
ENCODING 208
SWIDTH 722 0
DWIDTH 12 0
BBX 11 11 0 0
BITMAP
7F00
40C0
4040
4020
4020
FC20
4020
4020
4040
40C0
7F00
ENDCHAR
STARTCHAR Ntilde
ENCODING 209
SWIDTH 722 0
DWIDTH 12 0
BBX 9 14 1 0
BITMAP
1900
2600
0000
8080
C080
A080
9080
9080
8880
8480
8480
8280
8180
8080
ENDCHAR
STARTCHAR Ograve
ENCODING 210
SWIDTH 777 0
DWIDTH 12 0
BBX 10 15 1 0
BITMAP
1000
0800
0400
0000
1E00
6180
4080
8040
8040
8040
8040
8040
4080
6180
1E00
ENDCHAR
STARTCHAR Oacute
ENCODING 211
SWIDTH 777 0
DWIDTH 12 0
BBX 10 15 1 0
BITMAP
0200
0400
0800
0000
1E00
6180
4080
8040
8040
8040
8040
8040
4080
6180
1E00
ENDCHAR
STARTCHAR Ocircumflex
ENCODING 212
SWIDTH 777 0
DWIDTH 12 0
BBX 10 15 1 0
BITMAP
0400
0A00
1100
0000
1E00
6180
4080
8040
8040
8040
8040
8040
4080
6180
1E00
ENDCHAR
STARTCHAR Otilde
ENCODING 213
SWIDTH 777 0
DWIDTH 12 0
BBX 10 14 1 0
BITMAP
1900
2600
0000
1E00
6180
4080
8040
8040
8040
8040
8040
4080
6180
1E00
ENDCHAR
STARTCHAR Odieresis
ENCODING 214
SWIDTH 777 0
DWIDTH 12 0
BBX 10 13 1 0
BITMAP
1200
0000
1E00
6180
4080
8040
8040
8040
8040
8040
4080
6180
1E00
ENDCHAR
STARTCHAR multiply
ENCODING 215
SWIDTH 583 0
DWIDTH 9 0
BBX 7 7 1 2
BITMAP
82
44
28
10
28
44
82
ENDCHAR
STARTCHAR Oslash
ENCODING 216
SWIDTH 777 0
DWIDTH 12 0
BBX 10 11 1 0
BITMAP
1E40
6180
4180
8240
8440
8440
8840
9040
6080
6180
9E00
ENDCHAR
STARTCHAR Ugrave
ENCODING 217
SWIDTH 722 0
DWIDTH 12 0
BBX 9 15 1 0
BITMAP
1000
0800
0400
0000
8080
8080
8080
8080
8080
8080
8080
8080
8080
4100
3E00
ENDCHAR
STARTCHAR Uacute
ENCODING 218
SWIDTH 722 0
DWIDTH 12 0
BBX 9 15 1 0
BITMAP
0200
0400
0800
0000
8080
8080
8080
8080
8080
8080
8080
8080
8080
4100
3E00
ENDCHAR
STARTCHAR Ucircumflex
ENCODING 219
SWIDTH 722 0
DWIDTH 12 0
BBX 9 15 1 0
BITMAP
0800
1400
2200
0000
8080
8080
8080
8080
8080
8080
8080
8080
8080
4100
3E00
ENDCHAR
STARTCHAR Udieresis
ENCODING 220
SWIDTH 722 0
DWIDTH 12 0
BBX 9 13 1 0
BITMAP
1200
0000
8080
8080
8080
8080
8080
8080
8080
8080
8080
4100
3E00
ENDCHAR
STARTCHAR Yacute
ENCODING 221
SWIDTH 666 0
DWIDTH 11 0
BBX 9 15 0 0
BITMAP
0200
0400
0800
0000
8080
4100
2200
2200
1400
0800
0800
0800
0800
0800
0800
ENDCHAR
STARTCHAR Thorn
ENCODING 222
SWIDTH 666 0
DWIDTH 11 0
BBX 8 11 1 0
BITMAP
80
80
FC
82
81
81
81
82
FC
80
80
ENDCHAR
STARTCHAR germandbls
ENCODING 223
SWIDTH 610 0
DWIDTH 10 0
BBX 7 12 1 0
BITMAP
38
44
84
84
88
90
90
8C
82
82
82
9C
ENDCHAR
STARTCHAR agrave
ENCODING 224
SWIDTH 556 0
DWIDTH 9 0
BBX 8 13 1 0
BITMAP
20
10
08
00
7C
86
02
02
7E
82
82
86
79
ENDCHAR
STARTCHAR aacute
ENCODING 225
SWIDTH 556 0
DWIDTH 9 0
BBX 8 13 1 0
BITMAP
04
08
10
00
7C
86
02
02
7E
82
82
86
79
ENDCHAR
STARTCHAR acircumflex
ENCODING 226
SWIDTH 556 0
DWIDTH 9 0
BBX 8 13 1 0
BITMAP
10
28
44
00
7C
86
02
02
7E
82
82
86
79
ENDCHAR
STARTCHAR atilde
ENCODING 227
SWIDTH 556 0
DWIDTH 9 0
BBX 8 13 1 0
BITMAP
12
2A
24
00
7C
86
02
02
7E
82
82
86
79
ENDCHAR
STARTCHAR adieresis
ENCODING 228
SWIDTH 556 0
DWIDTH 9 0
BBX 8 11 1 0
BITMAP
28
00
7C
86
02
02
7E
82
82
86
79
ENDCHAR
STARTCHAR aring
ENCODING 229
SWIDTH 556 0
DWIDTH 9 0
BBX 8 14 1 0
BITMAP
18
24
24
18
00
7C
86
02
02
7E
82
82
86
79
ENDCHAR
STARTCHAR ae
ENCODING 230
SWIDTH 889 0
DWIDTH 14 0
BBX 12 9 1 0
BITMAP
7DE0
8210
0210
0210
7FF0
8200
8200
8610
79E0
ENDCHAR
STARTCHAR ccedilla
ENCODING 231
SWIDTH 500 0
DWIDTH 8 0
BBX 6 13 1 -4
BITMAP
38
44
80
80
80
80
80
44
38
20
30
08
30
ENDCHAR
STARTCHAR egrave
ENCODING 232
SWIDTH 556 0
DWIDTH 9 0
BBX 7 13 1 0
BITMAP
20
10
08
00
38
44
82
82
FE
80
80
42
3C
ENDCHAR
STARTCHAR eacute
ENCODING 233
SWIDTH 556 0
DWIDTH 9 0
BBX 7 13 1 0
BITMAP
04
08
10
00
38
44
82
82
FE
80
80
42
3C
ENDCHAR
STARTCHAR ecircumflex
ENCODING 234
SWIDTH 556 0
DWIDTH 9 0
BBX 7 13 1 0
BITMAP
10
28
44
00
38
44
82
82
FE
80
80
42
3C
ENDCHAR
STARTCHAR edieresis
ENCODING 235
SWIDTH 556 0
DWIDTH 9 0
BBX 7 11 1 0
BITMAP
28
00
38
44
82
82
FE
80
80
42
3C
ENDCHAR
STARTCHAR igrave
ENCODING 236
SWIDTH 277 0
DWIDTH 4 0
BBX 3 13 0 0
BITMAP
80
40
20
00
40
40
40
40
40
40
40
40
40
ENDCHAR
STARTCHAR iacute
ENCODING 237
SWIDTH 277 0
DWIDTH 4 0
BBX 3 13 1 0
BITMAP
20
40
80
00
80
80
80
80
80
80
80
80
80
ENDCHAR
STARTCHAR icircumflex
ENCODING 238
SWIDTH 277 0
DWIDTH 4 0
BBX 5 13 -1 0
BITMAP
20
50
88
00
20
20
20
20
20
20
20
20
20
ENDCHAR
STARTCHAR idieresis
ENCODING 239
SWIDTH 277 0
DWIDTH 4 0
BBX 3 11 0 0
BITMAP
A0
00
40
40
40
40
40
40
40
40
40
ENDCHAR
STARTCHAR eth
ENCODING 240
SWIDTH 556 0
DWIDTH 9 0
BBX 7 12 1 0
BITMAP
24
18
28
04
3C
46
82
82
82
82
44
38
ENDCHAR
STARTCHAR ntilde
ENCODING 241
SWIDTH 556 0
DWIDTH 9 0
BBX 6 13 1 0
BITMAP
24
54
48
00
B8
C4
84
84
84
84
84
84
84
ENDCHAR
STARTCHAR ograve
ENCODING 242
SWIDTH 556 0
DWIDTH 9 0
BBX 7 13 1 0
BITMAP
20
10
08
00
38
44
82
82
82
82
82
44
38
ENDCHAR
STARTCHAR oacute
ENCODING 243
SWIDTH 556 0
DWIDTH 9 0
BBX 7 13 1 0
BITMAP
04
08
10
00
38
44
82
82
82
82
82
44
38
ENDCHAR
STARTCHAR ocircumflex
ENCODING 244
SWIDTH 556 0
DWIDTH 9 0
BBX 7 13 1 0
BITMAP
10
28
44
00
38
44
82
82
82
82
82
44
38
ENDCHAR
STARTCHAR otilde
ENCODING 245
SWIDTH 556 0
DWIDTH 9 0
BBX 7 13 1 0
BITMAP
24
54
48
00
38
44
82
82
82
82
82
44
38
ENDCHAR
STARTCHAR odieresis
ENCODING 246
SWIDTH 556 0
DWIDTH 9 0
BBX 7 11 1 0
BITMAP
28
00
38
44
82
82
82
82
82
44
38
ENDCHAR
STARTCHAR divide
ENCODING 247
SWIDTH 548 0
DWIDTH 9 0
BBX 7 7 1 2
BITMAP
10
00
00
FE
00
00
10
ENDCHAR
STARTCHAR oslash
ENCODING 248
SWIDTH 610 0
DWIDTH 10 0
BBX 7 9 1 0
BITMAP
3A
44
86
8A
92
A2
C2
44
B8
ENDCHAR
STARTCHAR ugrave
ENCODING 249
SWIDTH 556 0
DWIDTH 9 0
BBX 6 13 1 0
BITMAP
20
10
08
00
84
84
84
84
84
84
84
8C
74
ENDCHAR
STARTCHAR uacute
ENCODING 250
SWIDTH 556 0
DWIDTH 9 0
BBX 6 13 1 0
BITMAP
08
10
20
00
84
84
84
84
84
84
84
8C
74
ENDCHAR
STARTCHAR ucircumflex
ENCODING 251
SWIDTH 556 0
DWIDTH 9 0
BBX 6 13 1 0
BITMAP
10
28
44
00
84
84
84
84
84
84
84
8C
74
ENDCHAR
STARTCHAR udieresis
ENCODING 252
SWIDTH 556 0
DWIDTH 9 0
BBX 6 11 1 0
BITMAP
28
00
84
84
84
84
84
84
84
8C
74
ENDCHAR
STARTCHAR yacute
ENCODING 253
SWIDTH 500 0
DWIDTH 8 0
BBX 7 16 0 -3
BITMAP
04
08
10
00
82
82
44
44
44
28
28
10
10
10
20
C0
ENDCHAR
STARTCHAR thorn
ENCODING 254
SWIDTH 556 0
DWIDTH 9 0
BBX 7 15 1 -3
BITMAP
80
80
80
B8
C4
82
82
82
82
82
C4
B8
80
80
80
ENDCHAR
STARTCHAR ydieresis
ENCODING 255
SWIDTH 500 0
DWIDTH 8 0
BBX 7 14 0 -3
BITMAP
28
00
82
82
44
44
44
28
28
10
10
10
20
C0
ENDCHAR
STARTCHAR Amacron
ENCODING 256
SWIDTH 666 0
DWIDTH 11 0
BBX 11 13 0 0
BITMAP
1F00
0000
0400
0C00
0A00
0A00
1100
1100
2080
3F80
4040
4040
8020
ENDCHAR
STARTCHAR amacron
ENCODING 257
SWIDTH 556 0
DWIDTH 9 0
BBX 8 11 1 0
BITMAP
7C
00
7C
86
02
02
7E
82
82
86
79
ENDCHAR
STARTCHAR Abreve
ENCODING 258
SWIDTH 666 0
DWIDTH 11 0
BBX 11 15 0 0
BITMAP
1100
1100
0E00
0000
0400
0C00
0A00
0A00
1100
1100
2080
3F80
4040
4040
8020
ENDCHAR
STARTCHAR abreve
ENCODING 259
SWIDTH 556 0
DWIDTH 9 0
BBX 8 13 1 0
BITMAP
44
44
38
00
7C
86
02
02
7E
82
82
86
79
ENDCHAR
STARTCHAR Aogonek
ENCODING 260
SWIDTH 666 0
DWIDTH 11 0
BBX 12 15 0 -4
BITMAP
0400
0C00
0A00
0A00
1100
1100
2080
3F80
4040
4040
8020
0020
0040
0040
0030
ENDCHAR
STARTCHAR aogonek
ENCODING 261
SWIDTH 556 0
DWIDTH 9 0
BBX 9 13 1 -4
BITMAP
7C00
8600
0200
0200
7E00
8200
8200
8600
7900
0100
0200
0200
0180
ENDCHAR
STARTCHAR Cacute
ENCODING 262
SWIDTH 722 0
DWIDTH 12 0
BBX 10 15 1 0
BITMAP
0100
0200
0400
0000
1F00
6080
4040
8000
8000
8000
8000
8000
4040
6080
1F00
ENDCHAR
STARTCHAR cacute
ENCODING 263
SWIDTH 500 0
DWIDTH 8 0
BBX 6 13 1 0
BITMAP
04
08
10
00
38
44
80
80
80
80
80
44
38
ENDCHAR
STARTCHAR Ccircumflex
ENCODING 264
SWIDTH 722 0
DWIDTH 12 0
BBX 10 15 1 0
BITMAP
0400
0A00
1100
0000
1F00
6080
4040
8000
8000
8000
8000
8000
4040
6080
1F00
ENDCHAR
STARTCHAR ccircumflex
ENCODING 265
SWIDTH 500 0
DWIDTH 8 0
BBX 6 13 1 0
BITMAP
10
28
44
00
38
44
80
80
80
80
80
44
38
ENDCHAR
STARTCHAR Cdotaccent
ENCODING 266
SWIDTH 722 0
DWIDTH 12 0
BBX 10 13 1 0
BITMAP
0400
0000
1F00
6080
4040
8000
8000
8000
8000
8000
4040
6080
1F00
ENDCHAR
STARTCHAR cdotaccent
ENCODING 267
SWIDTH 500 0
DWIDTH 8 0
BBX 6 11 1 0
BITMAP
10
00
38
44
80
80
80
80
80
44
38
ENDCHAR
STARTCHAR Ccaron
ENCODING 268
SWIDTH 722 0
DWIDTH 12 0
BBX 10 15 1 0
BITMAP
1100
0A00
0400
0000
1F00
6080
4040
8000
8000
8000
8000
8000
4040
6080
1F00
ENDCHAR
STARTCHAR ccaron
ENCODING 269
SWIDTH 500 0
DWIDTH 8 0
BBX 6 13 1 0
BITMAP
44
28
10
00
38
44
80
80
80
80
80
44
38
ENDCHAR
STARTCHAR Dcaron
ENCODING 270
SWIDTH 722 0
DWIDTH 12 0
BBX 10 15 1 0
BITMAP
2200
1400
0800
0000
FE00
8180
8080
8040
8040
8040
8040
8040
8080
8180
FE00
ENDCHAR
STARTCHAR dcaron
ENCODING 271
SWIDTH 614 0
DWIDTH 10 0
BBX 9 12 1 0
BITMAP
0280
0280
0280
3A00
4600
8200
8200
8200
8200
8200
4600
3A00
ENDCHAR
STARTCHAR Dcroat
ENCODING 272
SWIDTH 722 0
DWIDTH 12 0
BBX 11 11 0 0
BITMAP
7F00
40C0
4040
4020
4020
FC20
4020
4020
4040
40C0
7F00
ENDCHAR
STARTCHAR dcroat
ENCODING 273
SWIDTH 556 0
DWIDTH 9 0
BBX 8 12 1 0
BITMAP
02
0F
02
3A
46
82
82
82
82
82
46
3A
ENDCHAR
STARTCHAR Emacron
ENCODING 274
SWIDTH 666 0
DWIDTH 11 0
BBX 9 13 1 0
BITMAP
3E00
0000
FF80
8000
8000
8000
8000
FF00
8000
8000
8000
8000
FF80
ENDCHAR
STARTCHAR emacron
ENCODING 275
SWIDTH 556 0
DWIDTH 9 0
BBX 7 11 1 0
BITMAP
7C
00
38
44
82
82
FE
80
80
42
3C
ENDCHAR
STARTCHAR Ebreve
ENCODING 276
SWIDTH 666 0
DWIDTH 11 0
BBX 9 15 1 0
BITMAP
2200
2200
1C00
0000
FF80
8000
8000
8000
8000
FF00
8000
8000
8000
8000
FF80
ENDCHAR
STARTCHAR ebreve
ENCODING 277
SWIDTH 556 0
DWIDTH 9 0
BBX 7 13 1 0
BITMAP
44
44
38
00
38
44
82
82
FE
80
80
42
3C
ENDCHAR
STARTCHAR Edotaccent
ENCODING 278
SWIDTH 666 0
DWIDTH 11 0
BBX 9 13 1 0
BITMAP
0800
0000
FF80
8000
8000
8000
8000
FF00
8000
8000
8000
8000
FF80
ENDCHAR
STARTCHAR edotaccent
ENCODING 279
SWIDTH 556 0
DWIDTH 9 0
BBX 7 11 1 0
BITMAP
10
00
38
44
82
82
FE
80
80
42
3C
ENDCHAR
STARTCHAR Eogonek
ENCODING 280
SWIDTH 666 0
DWIDTH 11 0
BBX 10 15 1 -4
BITMAP
FF80
8000
8000
8000
8000
FF00
8000
8000
8000
8000
FF80
0080
0100
0100
00C0
ENDCHAR
STARTCHAR eogonek
ENCODING 281
SWIDTH 556 0
DWIDTH 9 0
BBX 7 13 1 -4
BITMAP
38
44
82
82
FE
80
80
42
3C
08
10
10
0C
ENDCHAR
STARTCHAR Ecaron
ENCODING 282
SWIDTH 666 0
DWIDTH 11 0
BBX 9 15 1 0
BITMAP
2200
1400
0800
0000
FF80
8000
8000
8000
8000
FF00
8000
8000
8000
8000
FF80
ENDCHAR
STARTCHAR ecaron
ENCODING 283
SWIDTH 556 0
DWIDTH 9 0
BBX 7 13 1 0
BITMAP
44
28
10
00
38
44
82
82
FE
80
80
42
3C
ENDCHAR
STARTCHAR Gcircumflex
ENCODING 284
SWIDTH 777 0
DWIDTH 12 0
BBX 10 15 1 0
BITMAP
0400
0A00
1100
0000
1F00
6080
4040
8000
8000
8000
83C0
8040
4040
60C0
1F00
ENDCHAR
STARTCHAR gcircumflex
ENCODING 285
SWIDTH 556 0
DWIDTH 9 0
BBX 7 16 1 -3
BITMAP
10
28
44
00
3A
46
82
82
82
82
82
46
3A
02
84
78
ENDCHAR
STARTCHAR Gbreve
ENCODING 286
SWIDTH 777 0
DWIDTH 12 0
BBX 10 15 1 0
BITMAP
1100
1100
0E00
0000
1F00
6080
4040
8000
8000
8000
83C0
8040
4040
60C0
1F00
ENDCHAR
STARTCHAR gbreve
ENCODING 287
SWIDTH 556 0
DWIDTH 9 0
BBX 7 16 1 -3
BITMAP
44
44
38
00
3A
46
82
82
82
82
82
46
3A
02
84
78
ENDCHAR
STARTCHAR Gdotaccent
ENCODING 288
SWIDTH 777 0
DWIDTH 12 0
BBX 10 13 1 0
BITMAP
0400
0000
1F00
6080
4040
8000
8000
8000
83C0
8040
4040
60C0
1F00
ENDCHAR
STARTCHAR gdotaccent
ENCODING 289
SWIDTH 556 0
DWIDTH 9 0
BBX 7 14 1 -3
BITMAP
10
00
3A
46
82
82
82
82
82
46
3A
02
84
78
ENDCHAR
STARTCHAR Gcommaaccent
ENCODING 290
SWIDTH 777 0
DWIDTH 12 0
BBX 10 15 1 -4
BITMAP
1F00
6080
4040
8000
8000
8000
83C0
8040
4040
60C0
1F00
0000
0400
0400
0800
ENDCHAR
STARTCHAR gcommaaccent
ENCODING 291
SWIDTH 556 0
DWIDTH 9 0
BBX 7 16 1 -3
BITMAP
10
10
10
00
3A
46
82
82
82
82
82
46
3A
02
84
78
ENDCHAR
STARTCHAR Hcircumflex
ENCODING 292
SWIDTH 722 0
DWIDTH 12 0
BBX 9 15 1 0
BITMAP
0800
1400
2200
0000
8080
8080
8080
8080
8080
FF80
8080
8080
8080
8080
8080
ENDCHAR
STARTCHAR hcircumflex
ENCODING 293
SWIDTH 556 0
DWIDTH 9 0
BBX 6 16 1 0
BITMAP
10
28
44
00
80
80
80
B8
C4
84
84
84
84
84
84
84
ENDCHAR
STARTCHAR Hbar
ENCODING 294
SWIDTH 722 0
DWIDTH 12 0
BBX 11 11 0 0
BITMAP
4040
4040
FFE0
4040
4040
7FC0
4040
4040
4040
4040
4040
ENDCHAR
STARTCHAR hbar
ENCODING 295
SWIDTH 556 0
DWIDTH 9 0
BBX 7 12 0 0
BITMAP
40
F0
40
5C
62
42
42
42
42
42
42
42
ENDCHAR
STARTCHAR Itilde
ENCODING 296
SWIDTH 277 0
DWIDTH 4 0
BBX 6 14 -1 0
BITMAP
64
98
00
20
20
20
20
20
20
20
20
20
20
20
ENDCHAR
STARTCHAR itilde
ENCODING 297
SWIDTH 277 0
DWIDTH 4 0
BBX 5 13 -1 0
BITMAP
48
A8
90
00
20
20
20
20
20
20
20
20
20
ENDCHAR
STARTCHAR Imacron
ENCODING 298
SWIDTH 277 0
DWIDTH 4 0
BBX 5 13 -1 0
BITMAP
F8
00
20
20
20
20
20
20
20
20
20
20
20
ENDCHAR
STARTCHAR imacron
ENCODING 299
SWIDTH 277 0
DWIDTH 4 0
BBX 5 11 -1 0
BITMAP
F8
00
20
20
20
20
20
20
20
20
20
ENDCHAR
STARTCHAR Ibreve
ENCODING 300
SWIDTH 277 0
DWIDTH 4 0
BBX 5 15 -1 0
BITMAP
88
88
70
00
20
20
20
20
20
20
20
20
20
20
20
ENDCHAR
STARTCHAR ibreve
ENCODING 301
SWIDTH 277 0
DWIDTH 4 0
BBX 5 13 -1 0
BITMAP
88
88
70
00
20
20
20
20
20
20
20
20
20
ENDCHAR
STARTCHAR Iogonek
ENCODING 302
SWIDTH 277 0
DWIDTH 4 0
BBX 3 15 0 -4
BITMAP
40
40
40
40
40
40
40
40
40
40
40
40
80
80
60
ENDCHAR
STARTCHAR iogonek
ENCODING 303
SWIDTH 222 0
DWIDTH 4 0
BBX 3 16 0 -4
BITMAP
40
00
00
40
40
40
40
40
40
40
40
40
40
80
80
60
ENDCHAR
STARTCHAR Idotaccent
ENCODING 304
SWIDTH 277 0
DWIDTH 4 0
BBX 1 13 1 0
BITMAP
80
00
80
80
80
80
80
80
80
80
80
80
80
ENDCHAR
STARTCHAR dotlessi
ENCODING 305
SWIDTH 277 0
DWIDTH 4 0
BBX 1 9 1 0
BITMAP
80
80
80
80
80
80
80
80
80
ENDCHAR
STARTCHAR IJ
ENCODING 306
SWIDTH 734 0
DWIDTH 12 0
BBX 9 11 1 0
BITMAP
8380
8080
8080
8080
8080
8080
8080
8080
9080
9080
8F00
ENDCHAR
STARTCHAR ij
ENCODING 307
SWIDTH 443 0
DWIDTH 7 0
BBX 5 15 1 -3
BITMAP
88
00
00
88
88
88
88
88
88
88
88
88
08
08
10
ENDCHAR
STARTCHAR Jcircumflex
ENCODING 308
SWIDTH 500 0
DWIDTH 8 0
BBX 7 15 0 0
BITMAP
08
14
22
00
1C
04
04
04
04
04
04
04
84
84
78
ENDCHAR
STARTCHAR jcircumflex
ENCODING 309
SWIDTH 222 0
DWIDTH 4 0
BBX 5 16 -1 -3
BITMAP
20
50
88
00
20
20
20
20
20
20
20
20
20
20
20
40
ENDCHAR
STARTCHAR Kcommaaccent
ENCODING 310
SWIDTH 666 0
DWIDTH 11 0
BBX 10 15 1 -4
BITMAP
8100
8200
8400
8800
9000
E800
8400
8200
8100
8080
8040
0000
0800
0800
1000
ENDCHAR
STARTCHAR kcommaaccent
ENCODING 311
SWIDTH 500 0
DWIDTH 8 0
BBX 7 16 1 -4
BITMAP
80
80
80
84
88
90
A0
E0
90
88
84
82
00
10
10
20
ENDCHAR
STARTCHAR kgreenlandic
ENCODING 312
SWIDTH 500 0
DWIDTH 8 0
BBX 7 9 1 0
BITMAP
84
88
90
A0
E0
90
88
84
82
ENDCHAR
STARTCHAR Lacute
ENCODING 313
SWIDTH 556 0
DWIDTH 9 0
BBX 7 15 1 0
BITMAP
10
20
40
00
80
80
80
80
80
80
80
80
80
80
FE
ENDCHAR
STARTCHAR lacute
ENCODING 314
SWIDTH 222 0
DWIDTH 4 0
BBX 3 16 1 0
BITMAP
20
40
80
00
80
80
80
80
80
80
80
80
80
80
80
80
ENDCHAR
STARTCHAR Lcommaaccent
ENCODING 315
SWIDTH 556 0
DWIDTH 9 0
BBX 7 15 1 -4
BITMAP
80
80
80
80
80
80
80
80
80
80
FE
00
10
10
20
ENDCHAR
STARTCHAR lcommaaccent
ENCODING 316
SWIDTH 222 0
DWIDTH 4 0
BBX 2 16 0 -4
BITMAP
40
40
40
40
40
40
40
40
40
40
40
40
00
40
40
80
ENDCHAR
STARTCHAR Lcaron
ENCODING 317
SWIDTH 556 0
DWIDTH 9 0
BBX 7 11 1 0
BITMAP
88
88
88
80
80
80
80
80
80
80
FE
ENDCHAR
STARTCHAR lcaron
ENCODING 318
SWIDTH 291 0
DWIDTH 5 0
BBX 4 12 1 0
BITMAP
90
90
90
80
80
80
80
80
80
80
80
80
ENDCHAR
STARTCHAR Ldot
ENCODING 319
SWIDTH 556 0
DWIDTH 9 0
BBX 7 11 1 0
BITMAP
80
80
80
80
88
80
80
80
80
80
FE
ENDCHAR
STARTCHAR ldot
ENCODING 320
SWIDTH 333 0
DWIDTH 5 0
BBX 4 12 1 0
BITMAP
80
80
80
80
80
90
80
80
80
80
80
80
ENDCHAR
STARTCHAR Lslash
ENCODING 321
SWIDTH 556 0
DWIDTH 9 0
BBX 8 11 0 0
BITMAP
40
40
40
40
50
60
40
C0
40
40
7F
ENDCHAR
STARTCHAR lslash
ENCODING 322
SWIDTH 222 0
DWIDTH 4 0
BBX 3 12 0 0
BITMAP
40
40
40
40
40
60
40
C0
40
40
40
40
ENDCHAR
STARTCHAR Nacute
ENCODING 323
SWIDTH 722 0
DWIDTH 12 0
BBX 9 15 1 0
BITMAP
0200
0400
0800
0000
8080
C080
A080
9080
9080
8880
8480
8480
8280
8180
8080
ENDCHAR
STARTCHAR nacute
ENCODING 324
SWIDTH 556 0
DWIDTH 9 0
BBX 6 13 1 0
BITMAP
08
10
20
00
B8
C4
84
84
84
84
84
84
84
ENDCHAR
STARTCHAR Ncommaaccent
ENCODING 325
SWIDTH 722 0
DWIDTH 12 0
BBX 9 15 1 -4
BITMAP
8080
C080
A080
9080
9080
8880
8480
8480
8280
8180
8080
0000
0800
0800
1000
ENDCHAR
STARTCHAR ncommaaccent
ENCODING 326
SWIDTH 556 0
DWIDTH 9 0
BBX 6 13 1 -4
BITMAP
B8
C4
84
84
84
84
84
84
84
00
10
10
20
ENDCHAR
STARTCHAR Ncaron
ENCODING 327
SWIDTH 722 0
DWIDTH 12 0
BBX 9 15 1 0
BITMAP
2200
1400
0800
0000
8080
C080
A080
9080
9080
8880
8480
8480
8280
8180
8080
ENDCHAR
STARTCHAR ncaron
ENCODING 328
SWIDTH 556 0
DWIDTH 9 0
BBX 6 13 1 0
BITMAP
44
28
10
00
B8
C4
84
84
84
84
84
84
84
ENDCHAR
STARTCHAR napostrophe
ENCODING 329
SWIDTH 604 0
DWIDTH 10 0
BBX 9 11 -1 0
BITMAP
4000
4000
5700
9880
1080
1080
1080
1080
1080
1080
1080
ENDCHAR
STARTCHAR Eng
ENCODING 330
SWIDTH 723 0
DWIDTH 12 0
BBX 10 11 1 0
BITMAP
9F00
A080
C040
8040
8040
8040
8040
8040
8040
8880
8700
ENDCHAR
STARTCHAR eng
ENCODING 331
SWIDTH 556 0
DWIDTH 9 0
BBX 7 12 1 -3
BITMAP
BC
C2
82
82
82
82
82
82
82
02
02
0C
ENDCHAR
STARTCHAR Omacron
ENCODING 332
SWIDTH 777 0
DWIDTH 12 0
BBX 10 13 1 0
BITMAP
1F00
0000
1E00
6180
4080
8040
8040
8040
8040
8040
4080
6180
1E00
ENDCHAR
STARTCHAR omacron
ENCODING 333
SWIDTH 556 0
DWIDTH 9 0
BBX 7 11 1 0
BITMAP
7C
00
38
44
82
82
82
82
82
44
38
ENDCHAR
STARTCHAR Obreve
ENCODING 334
SWIDTH 777 0
DWIDTH 12 0
BBX 10 15 1 0
BITMAP
1100
1100
0E00
0000
1E00
6180
4080
8040
8040
8040
8040
8040
4080
6180
1E00
ENDCHAR
STARTCHAR obreve
ENCODING 335
SWIDTH 556 0
DWIDTH 9 0
BBX 7 13 1 0
BITMAP
44
44
38
00
38
44
82
82
82
82
82
44
38
ENDCHAR
STARTCHAR Ohungarumlaut
ENCODING 336
SWIDTH 777 0
DWIDTH 12 0
BBX 10 15 1 0
BITMAP
0480
0900
1200
0000
1E00
6180
4080
8040
8040
8040
8040
8040
4080
6180
1E00
ENDCHAR
STARTCHAR ohungarumlaut
ENCODING 337
SWIDTH 556 0
DWIDTH 9 0
BBX 8 13 1 0
BITMAP
09
12
24
00
38
44
82
82
82
82
82
44
38
ENDCHAR
STARTCHAR OE
ENCODING 338
SWIDTH 1000 0
DWIDTH 16 0
BBX 14 11 1 0
BITMAP
1FFC
6100
4100
8100
8100
81F8
8100
8100
4100
6100
1FFC
ENDCHAR
STARTCHAR oe
ENCODING 339
SWIDTH 943 0
DWIDTH 15 0
BBX 13 9 1 0
BITMAP
38E0
4510
8208
8208
83F8
8200
8200
4508
38F0
ENDCHAR
STARTCHAR Racute
ENCODING 340
SWIDTH 722 0
DWIDTH 12 0
BBX 9 15 1 0
BITMAP
0400
0800
1000
0000
FF00
8080
8080
8080
8080
FF00
8800
8400
8200
8100
8080
ENDCHAR
STARTCHAR racute
ENCODING 341
SWIDTH 333 0
DWIDTH 5 0
BBX 4 13 1 0
BITMAP
10
20
40
00
B0
C0
80
80
80
80
80
80
80
ENDCHAR
STARTCHAR Rcommaaccent
ENCODING 342
SWIDTH 722 0
DWIDTH 12 0
BBX 9 15 1 -4
BITMAP
FF00
8080
8080
8080
8080
FF00
8800
8400
8200
8100
8080
0000
0800
0800
1000
ENDCHAR
STARTCHAR rcommaaccent
ENCODING 343
SWIDTH 333 0
DWIDTH 5 0
BBX 5 13 0 -4
BITMAP
58
60
40
40
40
40
40
40
40
00
40
40
80
ENDCHAR
STARTCHAR Rcaron
ENCODING 344
SWIDTH 722 0
DWIDTH 12 0
BBX 9 15 1 0
BITMAP
2200
1400
0800
0000
FF00
8080
8080
8080
8080
FF00
8800
8400
8200
8100
8080
ENDCHAR
STARTCHAR rcaron
ENCODING 345
SWIDTH 333 0
DWIDTH 5 0
BBX 5 13 1 0
BITMAP
88
50
20
00
B0
C0
80
80
80
80
80
80
80
ENDCHAR
STARTCHAR Sacute
ENCODING 346
SWIDTH 666 0
DWIDTH 11 0
BBX 9 15 1 0
BITMAP
0200
0400
0800
0000
3E00
4100
8080
8000
6000
1E00
0100
0080
8080
4100
3E00
ENDCHAR
STARTCHAR sacute
ENCODING 347
SWIDTH 500 0
DWIDTH 8 0
BBX 6 13 1 0
BITMAP
08
10
20
00
78
84
80
80
78
04
04
84
78
ENDCHAR
STARTCHAR Scircumflex
ENCODING 348
SWIDTH 666 0
DWIDTH 11 0
BBX 9 15 1 0
BITMAP
0800
1400
2200
0000
3E00
4100
8080
8000
6000
1E00
0100
0080
8080
4100
3E00
ENDCHAR
STARTCHAR scircumflex
ENCODING 349
SWIDTH 500 0
DWIDTH 8 0
BBX 6 13 1 0
BITMAP
10
28
44
00
78
84
80
80
78
04
04
84
78
ENDCHAR
STARTCHAR Scedilla
ENCODING 350
SWIDTH 666 0
DWIDTH 11 0
BBX 9 15 1 -4
BITMAP
3E00
4100
8080
8000
6000
1E00
0100
0080
8080
4100
3E00
0800
0C00
0200
0C00
ENDCHAR
STARTCHAR scedilla
ENCODING 351
SWIDTH 500 0
DWIDTH 8 0
BBX 6 13 1 -4
BITMAP
78
84
80
80
78
04
04
84
78
20
30
08
30
ENDCHAR
STARTCHAR Scaron
ENCODING 352
SWIDTH 666 0
DWIDTH 11 0
BBX 9 15 1 0
BITMAP
2200
1400
0800
0000
3E00
4100
8080
8000
6000
1E00
0100
0080
8080
4100
3E00
ENDCHAR
STARTCHAR scaron
ENCODING 353
SWIDTH 500 0
DWIDTH 8 0
BBX 6 13 1 0
BITMAP
44
28
10
00
78
84
80
80
78
04
04
84
78
ENDCHAR
STARTCHAR Tcommaaccent
ENCODING 354
SWIDTH 610 0
DWIDTH 10 0
BBX 9 15 0 -4
BITMAP
FF80
0800
0800
0800
0800
0800
0800
0800
0800
0800
0800
0000
0800
0800
1000
ENDCHAR
STARTCHAR tcommaaccent
ENCODING 355
SWIDTH 277 0
DWIDTH 4 0
BBX 4 15 0 -4
BITMAP
40
40
F0
40
40
40
40
40
40
40
30
00
20
20
40
ENDCHAR
STARTCHAR Tcaron
ENCODING 356
SWIDTH 610 0
DWIDTH 10 0
BBX 9 15 0 0
BITMAP
2200
1400
0800
0000
FF80
0800
0800
0800
0800
0800
0800
0800
0800
0800
0800
ENDCHAR
STARTCHAR tcaron
ENCODING 357
SWIDTH 375 0
DWIDTH 6 0
BBX 6 12 0 0
BITMAP
04
44
44
F0
40
40
40
40
40
40
40
30
ENDCHAR
STARTCHAR Tbar
ENCODING 358
SWIDTH 610 0
DWIDTH 10 0
BBX 9 11 0 0
BITMAP
FF80
0800
0800
0800
0800
3E00
0800
0800
0800
0800
0800
ENDCHAR
STARTCHAR tbar
ENCODING 359
SWIDTH 277 0
DWIDTH 4 0
BBX 4 11 0 0
BITMAP
40
40
F0
40
40
F0
40
40
40
40
30
ENDCHAR
STARTCHAR Utilde
ENCODING 360
SWIDTH 722 0
DWIDTH 12 0
BBX 9 14 1 0
BITMAP
1900
2600
0000
8080
8080
8080
8080
8080
8080
8080
8080
8080
4100
3E00
ENDCHAR
STARTCHAR utilde
ENCODING 361
SWIDTH 556 0
DWIDTH 9 0
BBX 6 13 1 0
BITMAP
24
54
48
00
84
84
84
84
84
84
84
8C
74
ENDCHAR
STARTCHAR Umacron
ENCODING 362
SWIDTH 722 0
DWIDTH 12 0
BBX 9 13 1 0
BITMAP
3E00
0000
8080
8080
8080
8080
8080
8080
8080
8080
8080
4100
3E00
ENDCHAR
STARTCHAR umacron
ENCODING 363
SWIDTH 556 0
DWIDTH 9 0
BBX 6 11 1 0
BITMAP
7C
00
84
84
84
84
84
84
84
8C
74
ENDCHAR
STARTCHAR Ubreve
ENCODING 364
SWIDTH 722 0
DWIDTH 12 0
BBX 9 15 1 0
BITMAP
2200
2200
1C00
0000
8080
8080
8080
8080
8080
8080
8080
8080
8080
4100
3E00
ENDCHAR
STARTCHAR ubreve
ENCODING 365
SWIDTH 556 0
DWIDTH 9 0
BBX 6 13 1 0
BITMAP
44
44
38
00
84
84
84
84
84
84
84
8C
74
ENDCHAR
STARTCHAR Uring
ENCODING 366
SWIDTH 722 0
DWIDTH 12 0
BBX 9 16 1 0
BITMAP
0C00
1200
1200
0C00
0000
8080
8080
8080
8080
8080
8080
8080
8080
8080
4100
3E00
ENDCHAR
STARTCHAR uring
ENCODING 367
SWIDTH 556 0
DWIDTH 9 0
BBX 6 14 1 0
BITMAP
30
48
48
30
00
84
84
84
84
84
84
84
8C
74
ENDCHAR
STARTCHAR Uhungarumlaut
ENCODING 368
SWIDTH 722 0
DWIDTH 12 0
BBX 9 15 1 0
BITMAP
0900
1200
2400
0000
8080
8080
8080
8080
8080
8080
8080
8080
8080
4100
3E00
ENDCHAR
STARTCHAR uhungarumlaut
ENCODING 369
SWIDTH 556 0
DWIDTH 9 0
BBX 7 13 1 0
BITMAP
12
24
48
00
84
84
84
84
84
84
84
8C
74
ENDCHAR
STARTCHAR Uogonek
ENCODING 370
SWIDTH 722 0
DWIDTH 12 0
BBX 9 15 1 -4
BITMAP
8080
8080
8080
8080
8080
8080
8080
8080
8080
4100
3E00
0400
0800
0800
0600
ENDCHAR
STARTCHAR uogonek
ENCODING 371
SWIDTH 556 0
DWIDTH 9 0
BBX 7 13 1 -4
BITMAP
84
84
84
84
84
84
84
8C
74
04
08
08
06
ENDCHAR
STARTCHAR Wcircumflex
ENCODING 372
SWIDTH 943 0
DWIDTH 15 0
BBX 15 15 0 0
BITMAP
0100
0280
0440
0000
8102
8102
4284
4284
4444
4444
2828
2828
2828
1010
1010
ENDCHAR
STARTCHAR wcircumflex
ENCODING 373
SWIDTH 722 0
DWIDTH 12 0
BBX 9 13 1 0
BITMAP
0800
1400
2200
0000
8880
8880
9480
5500
5500
5500
5500
2200
2200
ENDCHAR
STARTCHAR Ycircumflex
ENCODING 374
SWIDTH 666 0
DWIDTH 11 0
BBX 9 15 0 0
BITMAP
0800
1400
2200
0000
8080
4100
2200
2200
1400
0800
0800
0800
0800
0800
0800
ENDCHAR
STARTCHAR ycircumflex
ENCODING 375
SWIDTH 500 0
DWIDTH 8 0
BBX 7 16 0 -3
BITMAP
10
28
44
00
82
82
44
44
44
28
28
10
10
10
20
C0
ENDCHAR
STARTCHAR Ydieresis
ENCODING 376
SWIDTH 666 0
DWIDTH 11 0
BBX 9 13 0 0
BITMAP
1200
0000
8080
4100
2200
2200
1400
0800
0800
0800
0800
0800
0800
ENDCHAR
STARTCHAR Zacute
ENCODING 377
SWIDTH 610 0
DWIDTH 10 0
BBX 7 15 1 0
BITMAP
04
08
10
00
FE
02
04
08
08
10
20
20
40
80
FE
ENDCHAR
STARTCHAR zacute
ENCODING 378
SWIDTH 500 0
DWIDTH 8 0
BBX 7 13 0 0
BITMAP
04
08
10
00
FE
02
04
08
10
20
40
80
FE
ENDCHAR
STARTCHAR Zdotaccent
ENCODING 379
SWIDTH 610 0
DWIDTH 10 0
BBX 7 13 1 0
BITMAP
10
00
FE
02
04
08
08
10
20
20
40
80
FE
ENDCHAR
STARTCHAR zdotaccent
ENCODING 380
SWIDTH 500 0
DWIDTH 8 0
BBX 7 11 0 0
BITMAP
10
00
FE
02
04
08
10
20
40
80
FE
ENDCHAR
STARTCHAR Zcaron
ENCODING 381
SWIDTH 610 0
DWIDTH 10 0
BBX 7 15 1 0
BITMAP
22
14
08
00
FE
02
04
08
08
10
20
20
40
80
FE
ENDCHAR
STARTCHAR zcaron
ENCODING 382
SWIDTH 500 0
DWIDTH 8 0
BBX 7 13 0 0
BITMAP
44
28
10
00
FE
02
04
08
10
20
40
80
FE
ENDCHAR
STARTCHAR longs
ENCODING 383
SWIDTH 222 0
DWIDTH 4 0
BBX 3 12 1 0
BITMAP
60
80
80
80
80
80
80
80
80
80
80
80
ENDCHAR
STARTCHAR florin
ENCODING 402
SWIDTH 556 0
DWIDTH 9 0
BBX 6 15 2 -3
BITMAP
0C
10
10
78
20
20
20
20
40
40
40
40
40
80
80
ENDCHAR
STARTCHAR Aringacute
ENCODING 506
SWIDTH 666 0
DWIDTH 11 0
BBX 11 15 0 0
BITMAP
0100
0200
0400
0400
0A00
0400
0A00
0A00
1100
1100
2080
3F80
4040
4040
8020
ENDCHAR
STARTCHAR aringacute
ENCODING 507
SWIDTH 556 0
DWIDTH 9 0
BBX 8 16 1 0
BITMAP
04
08
10
00
18
24
24
7C
86
02
02
7E
82
82
86
79
ENDCHAR
STARTCHAR AEacute
ENCODING 508
SWIDTH 1000 0
DWIDTH 16 0
BBX 15 15 0 0
BITMAP
0020
0040
0080
0000
01FE
0280
0480
0480
0880
10FC
1080
3F80
4080
4080
80FE
ENDCHAR
STARTCHAR aeacute
ENCODING 509
SWIDTH 889 0
DWIDTH 14 0
BBX 12 13 1 0
BITMAP
0100
0200
0400
0000
7DE0
8210
0210
0210
7FF0
8200
8200
8610
79E0
ENDCHAR
STARTCHAR Oslashacute
ENCODING 510
SWIDTH 777 0
DWIDTH 12 0
BBX 10 15 1 0
BITMAP
0200
0400
0800
0000
1E40
6180
4180
8240
8440
8440
8840
9040
6080
6180
9E00
ENDCHAR
STARTCHAR oslashacute
ENCODING 511
SWIDTH 610 0
DWIDTH 10 0
BBX 7 13 1 0
BITMAP
04
08
10
00
3A
44
86
8A
92
A2
C2
44
B8
ENDCHAR
STARTCHAR circumflex
ENCODING 710
SWIDTH 333 0
DWIDTH 5 0
BBX 5 3 0 10
BITMAP
20
50
88
ENDCHAR
STARTCHAR caron
ENCODING 711
SWIDTH 333 0
DWIDTH 5 0
BBX 5 3 0 10
BITMAP
88
50
20
ENDCHAR
STARTCHAR uni02C9
ENCODING 713
SWIDTH 333 0
DWIDTH 5 0
BBX 5 1 0 11
BITMAP
F8
ENDCHAR
STARTCHAR breve
ENCODING 728
SWIDTH 333 0
DWIDTH 5 0
BBX 5 3 0 10
BITMAP
88
88
70
ENDCHAR
STARTCHAR dotaccent
ENCODING 729
SWIDTH 333 0
DWIDTH 5 0
BBX 1 1 2 11
BITMAP
80
ENDCHAR
STARTCHAR ring
ENCODING 730
SWIDTH 333 0
DWIDTH 5 0
BBX 4 4 0 10
BITMAP
60
90
90
60
ENDCHAR
STARTCHAR ogonek
ENCODING 731
SWIDTH 333 0
DWIDTH 5 0
BBX 3 4 1 -4
BITMAP
40
80
80
60
ENDCHAR
STARTCHAR tilde
ENCODING 732
SWIDTH 333 0
DWIDTH 5 0
BBX 5 3 0 10
BITMAP
48
A8
90
ENDCHAR
STARTCHAR hungarumlaut
ENCODING 733
SWIDTH 333 0
DWIDTH 5 0
BBX 6 3 0 10
BITMAP
24
48
90
ENDCHAR
STARTCHAR semicolon.dup3
ENCODING 894
SWIDTH 277 0
DWIDTH 4 0
BBX 2 11 1 -2
BITMAP
40
40
00
00
00
00
00
40
40
40
80
ENDCHAR
STARTCHAR tonos
ENCODING 900
SWIDTH 333 0
DWIDTH 5 0
BBX 2 3 2 8
BITMAP
40
80
80
ENDCHAR
STARTCHAR dieresistonos
ENCODING 901
SWIDTH 333 0
DWIDTH 5 0
BBX 5 3 0 10
BITMAP
10
20
A8
ENDCHAR
STARTCHAR Alphatonos
ENCODING 902
SWIDTH 667 0
DWIDTH 11 0
BBX 11 11 0 0
BITMAP
1400
2C00
2A00
0A00
1100
1100
2080
3F80
4040
4040
8020
ENDCHAR
STARTCHAR anoteleia
ENCODING 903
SWIDTH 277 0
DWIDTH 4 0
BBX 1 2 1 3
BITMAP
80
80
ENDCHAR
STARTCHAR Epsilontonos
ENCODING 904
SWIDTH 784 0
DWIDTH 13 0
BBX 12 11 0 0
BITMAP
5FF0
9000
9000
1000
1000
1FE0
1000
1000
1000
1000
1FF0
ENDCHAR
STARTCHAR Etatonos
ENCODING 905
SWIDTH 837 0
DWIDTH 13 0
BBX 12 11 0 0
BITMAP
5010
9010
9010
1010
1010
1FF0
1010
1010
1010
1010
1010
ENDCHAR
STARTCHAR Iotatonos
ENCODING 906
SWIDTH 383 0
DWIDTH 6 0
BBX 4 11 1 0
BITMAP
50
90
90
10
10
10
10
10
10
10
10
ENDCHAR
STARTCHAR Omicrontonos
ENCODING 908
SWIDTH 774 0
DWIDTH 12 0
BBX 11 11 0 0
BITMAP
4F00
B0C0
A040
4020
4020
4020
4020
4020
2040
30C0
0F00
ENDCHAR
STARTCHAR Upsilontonos
ENCODING 910
SWIDTH 855 0
DWIDTH 14 0
BBX 12 11 0 0
BITMAP
5010
8820
8440
0440
0280
0100
0100
0100
0100
0100
0100
ENDCHAR
STARTCHAR Omegatonos
ENCODING 911
SWIDTH 752 0
DWIDTH 12 0
BBX 11 11 0 0
BITMAP
4F00
B0C0
A040
4020
4020
4020
4020
2040
30C0
0900
79E0
ENDCHAR
STARTCHAR iotadieresistonos
ENCODING 912
SWIDTH 222 0
DWIDTH 4 0
BBX 5 13 -1 0
BITMAP
10
20
A8
00
20
20
20
20
20
20
20
20
20
ENDCHAR
STARTCHAR Alpha
ENCODING 913
SWIDTH 666 0
DWIDTH 11 0
BBX 11 11 0 0
BITMAP
0400
0C00
0A00
0A00
1100
1100
2080
3F80
4040
4040
8020
ENDCHAR
STARTCHAR Beta
ENCODING 914
SWIDTH 666 0
DWIDTH 11 0
BBX 9 11 1 0
BITMAP
FF00
8080
8080
8080
8080
FF00
8080
8080
8080
8080
FF00
ENDCHAR
STARTCHAR Gamma
ENCODING 915
SWIDTH 550 0
DWIDTH 9 0
BBX 7 11 1 0
BITMAP
FE
80
80
80
80
80
80
80
80
80
80
ENDCHAR
STARTCHAR uni0394
ENCODING 916
SWIDTH 667 0
DWIDTH 11 0
BBX 11 11 0 0
BITMAP
0400
0A00
0A00
1100
1100
2080
2080
4040
4040
8020
FFE0
ENDCHAR
STARTCHAR Epsilon
ENCODING 917
SWIDTH 666 0
DWIDTH 11 0
BBX 9 11 1 0
BITMAP
FF80
8000
8000
8000
8000
FF00
8000
8000
8000
8000
FF80
ENDCHAR
STARTCHAR Zeta
ENCODING 918
SWIDTH 610 0
DWIDTH 10 0
BBX 7 11 1 0
BITMAP
FE
02
04
08
08
10
20
20
40
80
FE
ENDCHAR
STARTCHAR Eta
ENCODING 919
SWIDTH 722 0
DWIDTH 12 0
BBX 9 11 1 0
BITMAP
8080
8080
8080
8080
8080
FF80
8080
8080
8080
8080
8080
ENDCHAR
STARTCHAR Theta
ENCODING 920
SWIDTH 777 0
DWIDTH 12 0
BBX 10 11 1 0
BITMAP
1E00
6180
4080
8040
8040
9E40
8040
8040
4080
6180
1E00
ENDCHAR
STARTCHAR Iota
ENCODING 921
SWIDTH 277 0
DWIDTH 4 0
BBX 1 11 1 0
BITMAP
80
80
80
80
80
80
80
80
80
80
80
ENDCHAR
STARTCHAR Kappa
ENCODING 922
SWIDTH 666 0
DWIDTH 11 0
BBX 10 11 1 0
BITMAP
8100
8200
8400
8800
9000
E800
8400
8200
8100
8080
8040
ENDCHAR
STARTCHAR Lambda
ENCODING 923
SWIDTH 667 0
DWIDTH 11 0
BBX 11 11 0 0
BITMAP
0400
0400
0A00
0A00
1100
1100
2080
2080
4040
4040
8020
ENDCHAR
STARTCHAR Mu
ENCODING 924
SWIDTH 833 0
DWIDTH 13 0
BBX 11 11 1 0
BITMAP
8020
C060
C060
A0A0
A0A0
9120
9120
8A20
8A20
8420
8420
ENDCHAR
STARTCHAR Nu
ENCODING 925
SWIDTH 722 0
DWIDTH 12 0
BBX 9 11 1 0
BITMAP
8080
C080
A080
9080
9080
8880
8480
8480
8280
8180
8080
ENDCHAR
STARTCHAR Xi
ENCODING 926
SWIDTH 649 0
DWIDTH 10 0
BBX 8 11 1 0
BITMAP
FF
00
00
00
00
7E
00
00
00
00
FF
ENDCHAR
STARTCHAR Omicron
ENCODING 927
SWIDTH 777 0
DWIDTH 12 0
BBX 10 11 1 0
BITMAP
1E00
6180
4080
8040
8040
8040
8040
8040
4080
6180
1E00
ENDCHAR
STARTCHAR Pi
ENCODING 928
SWIDTH 722 0
DWIDTH 12 0
BBX 9 11 1 0
BITMAP
FF80
8080
8080
8080
8080
8080
8080
8080
8080
8080
8080
ENDCHAR
STARTCHAR Rho
ENCODING 929
SWIDTH 666 0
DWIDTH 11 0
BBX 9 11 1 0
BITMAP
FE00
8180
8080
8080
8080
FF00
8000
8000
8000
8000
8000
ENDCHAR
STARTCHAR Sigma
ENCODING 931
SWIDTH 618 0
DWIDTH 10 0
BBX 8 11 1 0
BITMAP
FF
80
40
20
10
08
10
20
40
80
FF
ENDCHAR
STARTCHAR Tau
ENCODING 932
SWIDTH 610 0
DWIDTH 10 0
BBX 9 11 0 0
BITMAP
FF80
0800
0800
0800
0800
0800
0800
0800
0800
0800
0800
ENDCHAR
STARTCHAR Upsilon
ENCODING 933
SWIDTH 666 0
DWIDTH 11 0
BBX 9 11 0 0
BITMAP
8080
4100
2200
2200
1400
0800
0800
0800
0800
0800
0800
ENDCHAR
STARTCHAR Phi
ENCODING 934
SWIDTH 797 0
DWIDTH 13 0
BBX 9 11 1 0
BITMAP
0800
3E00
4900
8880
8880
8880
8880
4900
3E00
0800
0800
ENDCHAR
STARTCHAR Chi
ENCODING 935
SWIDTH 666 0
DWIDTH 11 0
BBX 11 11 0 0
BITMAP
8020
4040
2080
1100
0A00
0400
0A00
1100
2080
4040
8020
ENDCHAR
STARTCHAR Psi
ENCODING 936
SWIDTH 835 0
DWIDTH 13 0
BBX 9 11 1 0
BITMAP
8880
8880
8880
8880
8880
8880
4900
3E00
0800
0800
0800
ENDCHAR
STARTCHAR uni03A9
ENCODING 937
SWIDTH 747 0
DWIDTH 12 0
BBX 10 11 1 0
BITMAP
1E00
6180
4080
8040
8040
8040
8040
4080
6180
1200
F3C0
ENDCHAR
STARTCHAR Iotadieresis
ENCODING 938
SWIDTH 277 0
DWIDTH 4 0
BBX 4 13 0 0
BITMAP
90
00
40
40
40
40
40
40
40
40
40
40
40
ENDCHAR
STARTCHAR Upsilondieresis
ENCODING 939
SWIDTH 666 0
DWIDTH 11 0
BBX 9 13 0 0
BITMAP
1200
0000
8080
4100
2200
2200
1400
0800
0800
0800
0800
0800
0800
ENDCHAR
STARTCHAR alphatonos
ENCODING 940
SWIDTH 578 0
DWIDTH 9 0
BBX 8 13 1 0
BITMAP
04
08
08
00
39
47
82
82
82
82
82
46
39
ENDCHAR
STARTCHAR epsilontonos
ENCODING 941
SWIDTH 445 0
DWIDTH 7 0
BBX 5 13 1 0
BITMAP
10
20
20
00
70
88
80
80
70
C0
80
88
70
ENDCHAR
STARTCHAR etatonos
ENCODING 942
SWIDTH 556 0
DWIDTH 9 0
BBX 6 16 1 -3
BITMAP
08
10
10
00
B8
C4
84
84
84
84
84
84
84
04
04
04
ENDCHAR
STARTCHAR iotatonos
ENCODING 943
SWIDTH 222 0
DWIDTH 4 0
BBX 2 13 1 0
BITMAP
40
80
80
00
80
80
80
80
80
80
80
80
80
ENDCHAR
STARTCHAR upsilondieresistonos
ENCODING 944
SWIDTH 546 0
DWIDTH 9 0
BBX 6 13 1 0
BITMAP
08
10
54
00
88
84
84
84
84
84
84
88
70
ENDCHAR
STARTCHAR alpha
ENCODING 945
SWIDTH 578 0
DWIDTH 9 0
BBX 8 9 1 0
BITMAP
39
47
82
82
82
82
82
46
39
ENDCHAR
STARTCHAR beta
ENCODING 946
SWIDTH 575 0
DWIDTH 9 0
BBX 7 15 1 -3
BITMAP
78
84
84
84
88
98
84
82
82
82
84
F8
80
80
80
ENDCHAR
STARTCHAR gamma
ENCODING 947
SWIDTH 500 0
DWIDTH 8 0
BBX 7 12 1 -3
BITMAP
82
82
44
44
44
28
28
28
10
10
10
10
ENDCHAR
STARTCHAR delta
ENCODING 948
SWIDTH 556 0
DWIDTH 9 0
BBX 7 12 1 0
BITMAP
7C
40
20
10
38
44
82
82
82
82
44
38
ENDCHAR
STARTCHAR epsilon
ENCODING 949
SWIDTH 445 0
DWIDTH 7 0
BBX 5 9 1 0
BITMAP
70
88
80
80
70
C0
80
88
70
ENDCHAR
STARTCHAR zeta
ENCODING 950
SWIDTH 440 0
DWIDTH 7 0
BBX 6 15 1 -3
BITMAP
7C
08
08
10
20
40
80
80
80
80
40
38
04
04
04
ENDCHAR
STARTCHAR eta
ENCODING 951
SWIDTH 556 0
DWIDTH 9 0
BBX 6 12 1 -3
BITMAP
B8
C4
84
84
84
84
84
84
84
04
04
04
ENDCHAR
STARTCHAR theta
ENCODING 952
SWIDTH 556 0
DWIDTH 9 0
BBX 7 12 1 0
BITMAP
38
44
82
82
82
FE
82
82
82
82
44
38
ENDCHAR
STARTCHAR iota
ENCODING 953
SWIDTH 222 0
DWIDTH 4 0
BBX 1 9 1 0
BITMAP
80
80
80
80
80
80
80
80
80
ENDCHAR
STARTCHAR kappa
ENCODING 954
SWIDTH 500 0
DWIDTH 8 0
BBX 7 9 1 0
BITMAP
84
88
90
A0
E0
90
88
84
82
ENDCHAR
STARTCHAR lambda
ENCODING 955
SWIDTH 500 0
DWIDTH 8 0
BBX 8 12 0 0
BITMAP
60
10
08
08
14
14
24
22
42
42
81
81
ENDCHAR
STARTCHAR uni03BC
ENCODING 956
SWIDTH 576 0
DWIDTH 9 0
BBX 7 12 1 -3
BITMAP
82
82
82
82
82
82
82
C6
BA
80
80
80
ENDCHAR
STARTCHAR nu
ENCODING 957
SWIDTH 500 0
DWIDTH 8 0
BBX 6 9 0 0
BITMAP
80
84
44
44
44
28
28
28
10
ENDCHAR
STARTCHAR xi
ENCODING 958
SWIDTH 447 0
DWIDTH 7 0
BBX 6 15 1 -3
BITMAP
78
20
40
40
40
30
60
80
80
80
40
78
04
04
04
ENDCHAR
STARTCHAR omicron
ENCODING 959
SWIDTH 556 0
DWIDTH 9 0
BBX 7 9 1 0
BITMAP
38
44
82
82
82
82
82
44
38
ENDCHAR
STARTCHAR pi
ENCODING 960
SWIDTH 689 0
DWIDTH 11 0
BBX 9 9 1 0
BITMAP
FF80
2200
2200
2200
2200
2200
2200
4200
4100
ENDCHAR
STARTCHAR rho
ENCODING 961
SWIDTH 568 0
DWIDTH 9 0
BBX 7 12 1 -3
BITMAP
38
44
82
82
82
82
82
C4
B8
80
80
80
ENDCHAR
STARTCHAR sigma1
ENCODING 962
SWIDTH 481 0
DWIDTH 8 0
BBX 6 12 1 -3
BITMAP
38
44
80
80
80
80
80
40
38
04
04
04
ENDCHAR
STARTCHAR sigma
ENCODING 963
SWIDTH 617 0
DWIDTH 10 0
BBX 9 9 1 0
BITMAP
3F80
4400
8200
8200
8200
8200
8200
4400
3800
ENDCHAR
STARTCHAR tau
ENCODING 964
SWIDTH 395 0
DWIDTH 6 0
BBX 5 9 0 0
BITMAP
F8
20
20
20
20
20
20
20
10
ENDCHAR
STARTCHAR upsilon
ENCODING 965
SWIDTH 546 0
DWIDTH 9 0
BBX 6 9 1 0
BITMAP
88
84
84
84
84
84
84
88
70
ENDCHAR
STARTCHAR phi
ENCODING 966
SWIDTH 648 0
DWIDTH 10 0
BBX 9 12 0 -3
BITMAP
2600
4900
8880
8880
8880
8880
8880
4900
3E00
0800
0800
0800
ENDCHAR
STARTCHAR chi
ENCODING 967
SWIDTH 524 0
DWIDTH 8 0
BBX 8 12 0 -3
BITMAP
C1
22
22
14
14
08
34
24
42
42
81
81
ENDCHAR
STARTCHAR psi
ENCODING 968
SWIDTH 712 0
DWIDTH 11 0
BBX 9 14 1 -3
BITMAP
0800
0800
8880
8880
8880
8880
8880
8880
8880
4900
3E00
0800
0800
0800
ENDCHAR
STARTCHAR omega
ENCODING 969
SWIDTH 780 0
DWIDTH 12 0
BBX 11 9 1 0
BITMAP
2080
4040
8020
8420
8420
8420
8420
4A40
3180
ENDCHAR
STARTCHAR iotadieresis
ENCODING 970
SWIDTH 222 0
DWIDTH 4 0
BBX 3 11 0 0
BITMAP
A0
00
40
40
40
40
40
40
40
40
40
ENDCHAR
STARTCHAR upsilondieresis
ENCODING 971
SWIDTH 546 0
DWIDTH 9 0
BBX 6 11 1 0
BITMAP
28
00
88
84
84
84
84
84
84
88
70
ENDCHAR
STARTCHAR omicrontonos
ENCODING 972
SWIDTH 556 0
DWIDTH 9 0
BBX 7 13 1 0
BITMAP
08
10
10
00
38
44
82
82
82
82
82
44
38
ENDCHAR
STARTCHAR upsilontonos
ENCODING 973
SWIDTH 546 0
DWIDTH 9 0
BBX 6 13 1 0
BITMAP
10
20
20
00
88
84
84
84
84
84
84
88
70
ENDCHAR
STARTCHAR omegatonos
ENCODING 974
SWIDTH 780 0
DWIDTH 12 0
BBX 11 13 1 0
BITMAP
0200
0400
0400
0000
2080
4040
8020
8420
8420
8420
8420
4A40
3180
ENDCHAR
STARTCHAR afii10023
ENCODING 1025
SWIDTH 667 0
DWIDTH 11 0
BBX 9 13 1 0
BITMAP
1200
0000
FF80
8000
8000
8000
8000
FF00
8000
8000
8000
8000
FF80
ENDCHAR
STARTCHAR afii10051
ENCODING 1026
SWIDTH 864 0
DWIDTH 14 0
BBX 12 11 0 0
BITMAP
FF80
0800
0800
0BE0
0C10
0810
0810
0810
0810
0910
08E0
ENDCHAR
STARTCHAR afii10052
ENCODING 1027
SWIDTH 541 0
DWIDTH 9 0
BBX 7 15 1 0
BITMAP
08
10
20
00
FE
80
80
80
80
80
80
80
80
80
80
ENDCHAR
STARTCHAR afii10053
ENCODING 1028
SWIDTH 718 0
DWIDTH 12 0
BBX 10 11 1 0
BITMAP
1F00
6080
4040
8000
8000
FC00
8000
8000
4040
6080
1F00
ENDCHAR
STARTCHAR afii10054
ENCODING 1029
SWIDTH 666 0
DWIDTH 11 0
BBX 9 11 1 0
BITMAP
3E00
4100
8080
8000
6000
1E00
0100
0080
8080
4100
3E00
ENDCHAR
STARTCHAR afii10055
ENCODING 1030
SWIDTH 277 0
DWIDTH 4 0
BBX 1 11 1 0
BITMAP
80
80
80
80
80
80
80
80
80
80
80
ENDCHAR
STARTCHAR afii10056
ENCODING 1031
SWIDTH 277 0
DWIDTH 4 0
BBX 4 13 0 0
BITMAP
90
00
40
40
40
40
40
40
40
40
40
40
40
ENDCHAR
STARTCHAR afii10057
ENCODING 1032
SWIDTH 500 0
DWIDTH 8 0
BBX 6 11 0 0
BITMAP
1C
04
04
04
04
04
04
04
84
84
78
ENDCHAR
STARTCHAR afii10058
ENCODING 1033
SWIDTH 1057 0
DWIDTH 17 0
BBX 16 11 0 0
BITMAP
1F80
1080
1080
1080
1080
20FE
2081
2081
2081
4081
80FE
ENDCHAR
STARTCHAR afii10059
ENCODING 1034
SWIDTH 1010 0
DWIDTH 16 0
BBX 14 11 1 0
BITMAP
8200
8200
8200
8200
8200
FFF0
820C
8204
8204
8204
83F8
ENDCHAR
STARTCHAR afii10060
ENCODING 1035
SWIDTH 854 0
DWIDTH 14 0
BBX 12 11 0 0
BITMAP
FFC0
0800
0800
0BE0
0C10
0810
0810
0810
0810
0810
0810
ENDCHAR
STARTCHAR afii10061
ENCODING 1036
SWIDTH 582 0
DWIDTH 9 0
BBX 8 15 1 0
BITMAP
04
08
10
00
81
82
84
88
90
E0
90
88
84
82
81
ENDCHAR
STARTCHAR afii10062
ENCODING 1038
SWIDTH 635 0
DWIDTH 10 0
BBX 9 15 1 0
BITMAP
2100
2100
1E00
0000
8080
4100
4100
2200
2200
1400
0C00
0800
0800
1000
E000
ENDCHAR
STARTCHAR afii10145
ENCODING 1039
SWIDTH 718 0
DWIDTH 12 0
BBX 10 14 1 -3
BITMAP
8040
8040
8040
8040
8040
8040
8040
8040
8040
8040
FFC0
0400
0400
0400
ENDCHAR
STARTCHAR afii10017
ENCODING 1040
SWIDTH 666 0
DWIDTH 11 0
BBX 11 11 0 0
BITMAP
0400
0C00
0A00
0A00
1100
1100
2080
3F80
4040
4040
8020
ENDCHAR
STARTCHAR afii10018
ENCODING 1041
SWIDTH 656 0
DWIDTH 10 0
BBX 9 11 1 0
BITMAP
FF00
8000
8000
8000
8000
FF00
8080
8080
8080
8080
FF00
ENDCHAR
STARTCHAR afii10019
ENCODING 1042
SWIDTH 666 0
DWIDTH 11 0
BBX 9 11 1 0
BITMAP
FF00
8080
8080
8080
8080
FF00
8080
8080
8080
8080
FF00
ENDCHAR
STARTCHAR afii10020
ENCODING 1043
SWIDTH 541 0
DWIDTH 9 0
BBX 7 11 1 0
BITMAP
FE
80
80
80
80
80
80
80
80
80
80
ENDCHAR
STARTCHAR afii10021
ENCODING 1044
SWIDTH 677 0
DWIDTH 11 0
BBX 11 14 0 -3
BITMAP
1FC0
1040
1040
1040
1040
1040
2040
2040
2040
4040
FFE0
8020
8020
8020
ENDCHAR
STARTCHAR afii10022
ENCODING 1045
SWIDTH 666 0
DWIDTH 11 0
BBX 9 11 1 0
BITMAP
FF80
8000
8000
8000
8000
FF00
8000
8000
8000
8000
FF80
ENDCHAR
STARTCHAR afii10024
ENCODING 1046
SWIDTH 923 0
DWIDTH 15 0
BBX 14 11 0 0
BITMAP
8204
4208
2210
2220
1240
0F80
1240
2220
2210
4208
8204
ENDCHAR
STARTCHAR afii10025
ENCODING 1047
SWIDTH 604 0
DWIDTH 10 0
BBX 7 11 2 0
BITMAP
7C
82
02
02
02
1C
02
02
02
82
7C
ENDCHAR
STARTCHAR afii10026
ENCODING 1048
SWIDTH 718 0
DWIDTH 12 0
BBX 10 11 1 0
BITMAP
8040
80C0
8140
8240
8440
8440
8840
9040
A040
C040
8040
ENDCHAR
STARTCHAR afii10027
ENCODING 1049
SWIDTH 718 0
DWIDTH 12 0
BBX 10 15 1 0
BITMAP
2100
2100
1E00
0000
8040
80C0
8140
8240
8440
8440
8840
9040
A040
C040
8040
ENDCHAR
STARTCHAR afii10028
ENCODING 1050
SWIDTH 582 0
DWIDTH 9 0
BBX 8 11 1 0
BITMAP
81
82
84
88
90
E0
90
88
84
82
81
ENDCHAR
STARTCHAR afii10029
ENCODING 1051
SWIDTH 656 0
DWIDTH 10 0
BBX 9 11 0 0
BITMAP
1F80
1080
1080
1080
1080
2080
2080
2080
2080
4080
8080
ENDCHAR
STARTCHAR afii10030
ENCODING 1052
SWIDTH 833 0
DWIDTH 13 0
BBX 11 11 1 0
BITMAP
8020
C060
C060
A0A0
A0A0
9120
9120
8A20
8A20
8420
8420
ENDCHAR
STARTCHAR afii10031
ENCODING 1053
SWIDTH 722 0
DWIDTH 12 0
BBX 9 11 1 0
BITMAP
8080
8080
8080
8080
8080
FF80
8080
8080
8080
8080
8080
ENDCHAR
STARTCHAR afii10032
ENCODING 1054
SWIDTH 777 0
DWIDTH 12 0
BBX 10 11 1 0
BITMAP
1E00
6180
4080
8040
8040
8040
8040
8040
4080
6180
1E00
ENDCHAR
STARTCHAR afii10033
ENCODING 1055
SWIDTH 718 0
DWIDTH 12 0
BBX 9 11 1 0
BITMAP
FF80
8080
8080
8080
8080
8080
8080
8080
8080
8080
8080
ENDCHAR
STARTCHAR afii10034
ENCODING 1056
SWIDTH 666 0
DWIDTH 11 0
BBX 9 11 1 0
BITMAP
FE00
8180
8080
8080
8080
FF00
8000
8000
8000
8000
8000
ENDCHAR
STARTCHAR afii10035
ENCODING 1057
SWIDTH 722 0
DWIDTH 12 0
BBX 10 11 1 0
BITMAP
1F00
6080
4040
8000
8000
8000
8000
8000
4040
6080
1F00
ENDCHAR
STARTCHAR afii10036
ENCODING 1058
SWIDTH 610 0
DWIDTH 10 0
BBX 9 11 0 0
BITMAP
FF80
0800
0800
0800
0800
0800
0800
0800
0800
0800
0800
ENDCHAR
STARTCHAR afii10037
ENCODING 1059
SWIDTH 635 0
DWIDTH 10 0
BBX 9 11 1 0
BITMAP
8080
4100
4100
2200
2200
1400
0C00
0800
0800
1000
E000
ENDCHAR
STARTCHAR afii10038
ENCODING 1060
SWIDTH 760 0
DWIDTH 12 0
BBX 9 11 1 0
BITMAP
0800
3E00
4900
8880
8880
8880
8880
4900
3E00
0800
0800
ENDCHAR
STARTCHAR afii10039
ENCODING 1061
SWIDTH 666 0
DWIDTH 11 0
BBX 11 11 0 0
BITMAP
8020
4040
2080
1100
0A00
0400
0A00
1100
2080
4040
8020
ENDCHAR
STARTCHAR afii10040
ENCODING 1062
SWIDTH 739 0
DWIDTH 12 0
BBX 10 14 1 -3
BITMAP
8080
8080
8080
8080
8080
8080
8080
8080
8080
8080
FFC0
0040
0040
0040
ENDCHAR
STARTCHAR afii10041
ENCODING 1063
SWIDTH 666 0
DWIDTH 11 0
BBX 8 11 1 0
BITMAP
81
81
81
81
81
83
7D
01
01
01
01
ENDCHAR
STARTCHAR afii10042
ENCODING 1064
SWIDTH 916 0
DWIDTH 15 0
BBX 11 11 1 0
BITMAP
8420
8420
8420
8420
8420
8420
8420
8420
8420
8420
FFE0
ENDCHAR
STARTCHAR afii10043
ENCODING 1065
SWIDTH 937 0
DWIDTH 15 0
BBX 12 14 1 -3
BITMAP
8420
8420
8420
8420
8420
8420
8420
8420
8420
8420
FFF0
0010
0010
0010
ENDCHAR
STARTCHAR afii10044
ENCODING 1066
SWIDTH 791 0
DWIDTH 13 0
BBX 12 11 0 0
BITMAP
F800
0800
0800
0800
0800
0FE0
0810
0810
0810
0810
0FE0
ENDCHAR
STARTCHAR afii10045
ENCODING 1067
SWIDTH 885 0
DWIDTH 14 0
BBX 12 11 1 0
BITMAP
8010
8010
8010
8010
8010
FF10
8090
8090
8090
8090
FF10
ENDCHAR
STARTCHAR afii10046
ENCODING 1068
SWIDTH 656 0
DWIDTH 10 0
BBX 9 11 1 0
BITMAP
8000
8000
8000
8000
8000
FF00
8080
8080
8080
8080
FF00
ENDCHAR
STARTCHAR afii10047
ENCODING 1069
SWIDTH 718 0
DWIDTH 12 0
BBX 10 11 1 0
BITMAP
3E00
4180
8080
0040
0040
0FC0
0040
0040
8080
4180
3E00
ENDCHAR
STARTCHAR afii10048
ENCODING 1070
SWIDTH 1010 0
DWIDTH 16 0
BBX 14 11 1 0
BITMAP
81E0
8618
8408
8804
8804
F804
8804
8804
8408
8618
81E0
ENDCHAR
STARTCHAR afii10049
ENCODING 1071
SWIDTH 722 0
DWIDTH 12 0
BBX 10 11 1 0
BITMAP
3FC0
C040
8040
8040
8040
7FC0
0840
1040
2040
4040
8040
ENDCHAR
STARTCHAR afii10065
ENCODING 1072
SWIDTH 556 0
DWIDTH 9 0
BBX 8 9 1 0
BITMAP
7C
86
02
02
7E
82
82
86
79
ENDCHAR
STARTCHAR afii10066
ENCODING 1073
SWIDTH 572 0
DWIDTH 9 0
BBX 7 12 1 0
BITMAP
1E
20
40
80
B8
C4
82
82
82
82
44
38
ENDCHAR
STARTCHAR afii10067
ENCODING 1074
SWIDTH 531 0
DWIDTH 8 0
BBX 7 9 1 0
BITMAP
FC
82
82
82
FC
82
82
82
FC
ENDCHAR
STARTCHAR afii10068
ENCODING 1075
SWIDTH 364 0
DWIDTH 6 0
BBX 5 9 1 0
BITMAP
F8
80
80
80
80
80
80
80
80
ENDCHAR
STARTCHAR afii10069
ENCODING 1076
SWIDTH 583 0
DWIDTH 9 0
BBX 9 12 0 -3
BITMAP
1F00
1100
1100
2100
2100
2100
2100
4100
FF80
8080
8080
8080
ENDCHAR
STARTCHAR afii10070
ENCODING 1077
SWIDTH 556 0
DWIDTH 9 0
BBX 7 9 1 0
BITMAP
38
44
82
82
FE
80
80
42
3C
ENDCHAR
STARTCHAR afii10072
ENCODING 1078
SWIDTH 668 0
DWIDTH 11 0
BBX 9 9 1 0
BITMAP
8880
4900
4900
2A00
3E00
2A00
4900
4900
8880
ENDCHAR
STARTCHAR afii10073
ENCODING 1079
SWIDTH 458 0
DWIDTH 7 0
BBX 5 9 1 0
BITMAP
70
88
08
08
30
08
08
88
70
ENDCHAR
STARTCHAR afii10074
ENCODING 1080
SWIDTH 558 0
DWIDTH 9 0
BBX 6 9 1 0
BITMAP
84
8C
8C
94
94
A4
C4
C4
84
ENDCHAR
STARTCHAR afii10075
ENCODING 1081
SWIDTH 558 0
DWIDTH 9 0
BBX 6 13 1 0
BITMAP
84
84
78
00
84
8C
8C
94
94
A4
C4
C4
84
ENDCHAR
STARTCHAR afii10076
ENCODING 1082
SWIDTH 437 0
DWIDTH 7 0
BBX 6 9 1 0
BITMAP
84
88
90
A0
C0
A0
90
88
84
ENDCHAR
STARTCHAR afii10077
ENCODING 1083
SWIDTH 583 0
DWIDTH 9 0
BBX 7 9 0 0
BITMAP
3E
22
22
22
22
22
42
42
82
ENDCHAR
STARTCHAR afii10078
ENCODING 1084
SWIDTH 687 0
DWIDTH 11 0
BBX 9 9 1 0
BITMAP
8080
C180
C280
A280
A280
9480
9480
8880
8880
ENDCHAR
STARTCHAR afii10079
ENCODING 1085
SWIDTH 552 0
DWIDTH 9 0
BBX 6 9 1 0
BITMAP
84
84
84
84
FC
84
84
84
84
ENDCHAR
STARTCHAR afii10080
ENCODING 1086
SWIDTH 556 0
DWIDTH 9 0
BBX 7 9 1 0
BITMAP
38
44
82
82
82
82
82
44
38
ENDCHAR
STARTCHAR afii10081
ENCODING 1087
SWIDTH 541 0
DWIDTH 9 0
BBX 6 9 1 0
BITMAP
FC
84
84
84
84
84
84
84
84
ENDCHAR
STARTCHAR afii10082
ENCODING 1088
SWIDTH 556 0
DWIDTH 9 0
BBX 7 12 1 -3
BITMAP
B8
C4
82
82
82
82
82
C4
B8
80
80
80
ENDCHAR
STARTCHAR afii10083
ENCODING 1089
SWIDTH 500 0
DWIDTH 8 0
BBX 6 9 1 0
BITMAP
38
44
80
80
80
80
80
44
38
ENDCHAR
STARTCHAR afii10084
ENCODING 1090
SWIDTH 458 0
DWIDTH 7 0
BBX 7 9 0 0
BITMAP
FE
10
10
10
10
10
10
10
10
ENDCHAR
STARTCHAR afii10085
ENCODING 1091
SWIDTH 500 0
DWIDTH 8 0
BBX 7 12 0 -3
BITMAP
82
82
44
44
44
28
28
10
10
10
20
C0
ENDCHAR
STARTCHAR afii10086
ENCODING 1092
SWIDTH 822 0
DWIDTH 13 0
BBX 11 15 1 -3
BITMAP
0400
0400
0400
75C0
8E20
8420
8420
8420
8420
8420
8E20
75C0
0400
0400
0400
ENDCHAR
STARTCHAR afii10087
ENCODING 1093
SWIDTH 500 0
DWIDTH 8 0
BBX 7 9 0 0
BITMAP
82
44
44
28
10
28
64
44
82
ENDCHAR
STARTCHAR afii10088
ENCODING 1094
SWIDTH 572 0
DWIDTH 9 0
BBX 7 12 1 -3
BITMAP
84
84
84
84
84
84
84
84
FE
02
02
02
ENDCHAR
STARTCHAR afii10089
ENCODING 1095
SWIDTH 520 0
DWIDTH 8 0
BBX 6 9 1 0
BITMAP
84
84
84
84
84
7C
04
04
04
ENDCHAR
STARTCHAR afii10090
ENCODING 1096
SWIDTH 802 0
DWIDTH 13 0
BBX 9 9 1 0
BITMAP
8880
8880
8880
8880
8880
8880
8880
8880
FF80
ENDCHAR
STARTCHAR afii10091
ENCODING 1097
SWIDTH 822 0
DWIDTH 13 0
BBX 10 12 1 -3
BITMAP
8880
8880
8880
8880
8880
8880
8880
8880
FFC0
0040
0040
0040
ENDCHAR
STARTCHAR afii10092
ENCODING 1098
SWIDTH 625 0
DWIDTH 10 0
BBX 9 9 0 0
BITMAP
F000
1000
1000
1000
1F00
1080
1080
1080
1F00
ENDCHAR
STARTCHAR afii10093
ENCODING 1099
SWIDTH 718 0
DWIDTH 12 0
BBX 10 9 1 0
BITMAP
8040
8040
8040
8040
FC40
8240
8240
8240
FC40
ENDCHAR
STARTCHAR afii10094
ENCODING 1100
SWIDTH 520 0
DWIDTH 8 0
BBX 7 9 1 0
BITMAP
80
80
80
80
FC
82
82
82
FC
ENDCHAR
STARTCHAR afii10095
ENCODING 1101
SWIDTH 510 0
DWIDTH 8 0
BBX 6 9 1 0
BITMAP
70
88
04
04
3C
04
04
88
70
ENDCHAR
STARTCHAR afii10096
ENCODING 1102
SWIDTH 750 0
DWIDTH 12 0
BBX 10 9 1 0
BITMAP
8700
8880
9040
9040
F040
9040
9040
8880
8700
ENDCHAR
STARTCHAR afii10097
ENCODING 1103
SWIDTH 541 0
DWIDTH 9 0
BBX 7 9 0 0
BITMAP
3E
42
42
42
3E
12
22
42
82
ENDCHAR
STARTCHAR afii10071
ENCODING 1105
SWIDTH 556 0
DWIDTH 9 0
BBX 7 11 1 0
BITMAP
28
00
38
44
82
82
FE
80
80
42
3C
ENDCHAR
STARTCHAR afii10099
ENCODING 1106
SWIDTH 556 0
DWIDTH 9 0
BBX 7 15 0 -3
BITMAP
40
F0
40
5C
62
42
42
42
42
42
42
42
02
02
0C
ENDCHAR
STARTCHAR afii10100
ENCODING 1107
SWIDTH 364 0
DWIDTH 6 0
BBX 5 13 1 0
BITMAP
08
10
20
00
F8
80
80
80
80
80
80
80
80
ENDCHAR
STARTCHAR afii10101
ENCODING 1108
SWIDTH 510 0
DWIDTH 8 0
BBX 6 9 1 0
BITMAP
38
44
80
80
F0
80
80
44
38
ENDCHAR
STARTCHAR afii10102
ENCODING 1109
SWIDTH 500 0
DWIDTH 8 0
BBX 6 9 1 0
BITMAP
78
84
80
80
78
04
04
84
78
ENDCHAR
STARTCHAR afii10103
ENCODING 1110
SWIDTH 222 0
DWIDTH 4 0
BBX 1 12 1 0
BITMAP
80
00
00
80
80
80
80
80
80
80
80
80
ENDCHAR
STARTCHAR afii10104
ENCODING 1111
SWIDTH 277 0
DWIDTH 4 0
BBX 3 11 0 0
BITMAP
A0
00
40
40
40
40
40
40
40
40
40
ENDCHAR
STARTCHAR afii10105
ENCODING 1112
SWIDTH 222 0
DWIDTH 4 0
BBX 2 15 0 -3
BITMAP
40
00
00
40
40
40
40
40
40
40
40
40
40
40
80
ENDCHAR
STARTCHAR afii10106
ENCODING 1113
SWIDTH 906 0
DWIDTH 14 0
BBX 14 9 0 0
BITMAP
3F00
2100
2100
2100
21F8
2104
4104
4104
81F8
ENDCHAR
STARTCHAR afii10107
ENCODING 1114
SWIDTH 812 0
DWIDTH 13 0
BBX 11 9 1 0
BITMAP
8400
8400
8400
8400
FFC0
8420
8420
8420
87C0
ENDCHAR
STARTCHAR afii10108
ENCODING 1115
SWIDTH 556 0
DWIDTH 9 0
BBX 7 12 0 0
BITMAP
40
F0
40
5C
62
42
42
42
42
42
42
42
ENDCHAR
STARTCHAR afii10109
ENCODING 1116
SWIDTH 437 0
DWIDTH 7 0
BBX 6 13 1 0
BITMAP
08
10
20
00
84
88
90
A0
C0
A0
90
88
84
ENDCHAR
STARTCHAR afii10110
ENCODING 1118
SWIDTH 500 0
DWIDTH 8 0
BBX 7 16 0 -3
BITMAP
42
42
3C
00
82
82
44
44
44
28
28
10
10
10
20
C0
ENDCHAR
STARTCHAR afii10193
ENCODING 1119
SWIDTH 552 0
DWIDTH 9 0
BBX 6 12 1 -3
BITMAP
84
84
84
84
84
84
84
84
FC
10
10
10
ENDCHAR
STARTCHAR afii10050
ENCODING 1168
SWIDTH 488 0
DWIDTH 8 0
BBX 6 14 1 0
BITMAP
04
04
04
FC
80
80
80
80
80
80
80
80
80
80
ENDCHAR
STARTCHAR afii10098
ENCODING 1169
SWIDTH 411 0
DWIDTH 7 0
BBX 5 12 1 0
BITMAP
08
08
08
F8
80
80
80
80
80
80
80
80
ENDCHAR
STARTCHAR Wgrave
ENCODING 7808
SWIDTH 943 0
DWIDTH 15 0
BBX 15 15 0 0
BITMAP
0200
0100
0080
0000
8102
8102
4284
4284
4444
4444
2828
2828
2828
1010
1010
ENDCHAR
STARTCHAR wgrave
ENCODING 7809
SWIDTH 722 0
DWIDTH 12 0
BBX 9 13 1 0
BITMAP
2000
1000
0800
0000
8880
8880
9480
5500
5500
5500
5500
2200
2200
ENDCHAR
STARTCHAR Wacute
ENCODING 7810
SWIDTH 943 0
DWIDTH 15 0
BBX 15 15 0 0
BITMAP
0040
0080
0100
0000
8102
8102
4284
4284
4444
4444
2828
2828
2828
1010
1010
ENDCHAR
STARTCHAR wacute
ENCODING 7811
SWIDTH 722 0
DWIDTH 12 0
BBX 9 13 1 0
BITMAP
0200
0400
0800
0000
8880
8880
9480
5500
5500
5500
5500
2200
2200
ENDCHAR
STARTCHAR Wdieresis
ENCODING 7812
SWIDTH 943 0
DWIDTH 15 0
BBX 15 13 0 0
BITMAP
0240
0000
8102
8102
4284
4284
4444
4444
2828
2828
2828
1010
1010
ENDCHAR
STARTCHAR wdieresis
ENCODING 7813
SWIDTH 722 0
DWIDTH 12 0
BBX 9 11 1 0
BITMAP
1400
0000
8880
8880
9480
5500
5500
5500
5500
2200
2200
ENDCHAR
STARTCHAR Ygrave
ENCODING 7922
SWIDTH 666 0
DWIDTH 11 0
BBX 9 15 0 0
BITMAP
1000
0800
0400
0000
8080
4100
2200
2200
1400
0800
0800
0800
0800
0800
0800
ENDCHAR
STARTCHAR ygrave
ENCODING 7923
SWIDTH 500 0
DWIDTH 8 0
BBX 7 16 0 -3
BITMAP
20
10
08
00
82
82
44
44
44
28
28
10
10
10
20
C0
ENDCHAR
STARTCHAR endash
ENCODING 8211
SWIDTH 556 0
DWIDTH 9 0
BBX 9 1 0 4
BITMAP
FF80
ENDCHAR
STARTCHAR emdash
ENCODING 8212
SWIDTH 1000 0
DWIDTH 16 0
BBX 16 1 0 4
BITMAP
FFFF
ENDCHAR
STARTCHAR afii00208
ENCODING 8213
SWIDTH 1000 0
DWIDTH 16 0
BBX 16 1 0 4
BITMAP
FFFF
ENDCHAR
STARTCHAR underscoredbl
ENCODING 8215
SWIDTH 552 0
DWIDTH 9 0
BBX 9 2 0 -3
BITMAP
FF80
FF80
ENDCHAR
STARTCHAR quoteleft
ENCODING 8216
SWIDTH 222 0
DWIDTH 4 0
BBX 2 4 1 7
BITMAP
40
80
80
80
ENDCHAR
STARTCHAR quoteright
ENCODING 8217
SWIDTH 222 0
DWIDTH 4 0
BBX 2 4 0 7
BITMAP
40
40
40
80
ENDCHAR
STARTCHAR quotesinglbase
ENCODING 8218
SWIDTH 222 0
DWIDTH 4 0
BBX 2 4 0 -2
BITMAP
40
40
40
80
ENDCHAR
STARTCHAR quotereversed
ENCODING 8219
SWIDTH 222 0
DWIDTH 4 0
BBX 2 4 1 7
BITMAP
80
80
80
40
ENDCHAR
STARTCHAR quotedblleft
ENCODING 8220
SWIDTH 333 0
DWIDTH 5 0
BBX 4 4 1 7
BITMAP
50
A0
A0
A0
ENDCHAR
STARTCHAR quotedblright
ENCODING 8221
SWIDTH 333 0
DWIDTH 5 0
BBX 4 4 0 7
BITMAP
50
50
50
A0
ENDCHAR
STARTCHAR quotedblbase
ENCODING 8222
SWIDTH 333 0
DWIDTH 5 0
BBX 4 4 0 -2
BITMAP
50
50
50
A0
ENDCHAR
STARTCHAR dagger
ENCODING 8224
SWIDTH 556 0
DWIDTH 9 0
BBX 7 13 1 -1
BITMAP
10
10
10
FE
10
10
10
10
10
10
10
10
10
ENDCHAR
STARTCHAR daggerdbl
ENCODING 8225
SWIDTH 556 0
DWIDTH 9 0
BBX 7 13 1 -1
BITMAP
10
10
10
FE
10
10
10
10
10
FE
10
10
10
ENDCHAR
STARTCHAR bullet
ENCODING 8226
SWIDTH 350 0
DWIDTH 6 0
BBX 4 4 1 3
BITMAP
60
F0
F0
60
ENDCHAR
STARTCHAR ellipsis
ENCODING 8230
SWIDTH 1000 0
DWIDTH 16 0
BBX 11 2 2 0
BITMAP
8420
8420
ENDCHAR
STARTCHAR perthousand
ENCODING 8240
SWIDTH 1000 0
DWIDTH 16 0
BBX 17 11 0 0
BITMAP
708000
890000
890000
8A0000
8A0000
75C700
0A2880
0A2880
122880
122880
21C700
ENDCHAR
STARTCHAR minute
ENCODING 8242
SWIDTH 187 0
DWIDTH 3 0
BBX 2 4 1 7
BITMAP
40
40
80
80
ENDCHAR
STARTCHAR second
ENCODING 8243
SWIDTH 354 0
DWIDTH 6 0
BBX 5 4 1 7
BITMAP
48
48
90
90
ENDCHAR
STARTCHAR guilsinglleft
ENCODING 8249
SWIDTH 333 0
DWIDTH 5 0
BBX 4 7 0 1
BITMAP
10
20
40
80
40
20
10
ENDCHAR
STARTCHAR guilsinglright
ENCODING 8250
SWIDTH 333 0
DWIDTH 5 0
BBX 4 7 1 1
BITMAP
80
40
20
10
20
40
80
ENDCHAR
STARTCHAR exclamdbl
ENCODING 8252
SWIDTH 500 0
DWIDTH 8 0
BBX 5 11 2 0
BITMAP
88
88
88
88
88
88
88
88
00
88
88
ENDCHAR
STARTCHAR uni203E
ENCODING 8254
SWIDTH 333 0
DWIDTH 5 0
BBX 7 1 -1 12
BITMAP
FE
ENDCHAR
STARTCHAR fraction
ENCODING 8260
SWIDTH 166 0
DWIDTH 3 0
BBX 7 11 -2 0
BITMAP
02
04
04
08
08
10
20
20
40
40
80
ENDCHAR
STARTCHAR uni207F
ENCODING 8319
SWIDTH 364 0
DWIDTH 6 0
BBX 4 5 1 5
BITMAP
E0
90
90
90
90
ENDCHAR
STARTCHAR franc
ENCODING 8355
SWIDTH 556 0
DWIDTH 9 0
BBX 8 11 0 0
BITMAP
7F
40
40
40
40
7F
40
40
FC
40
40
ENDCHAR
STARTCHAR lira
ENCODING 8356
SWIDTH 556 0
DWIDTH 9 0
BBX 7 11 1 0
BITMAP
38
44
40
40
F8
40
F8
40
40
82
FC
ENDCHAR
STARTCHAR peseta
ENCODING 8359
SWIDTH 1093 0
DWIDTH 18 0
BBX 16 11 1 0
BITMAP
F800
8400
8480
8480
85CE
F891
8090
808E
8081
8091
804E
ENDCHAR
STARTCHAR Euro
ENCODING 8364
SWIDTH 556 0
DWIDTH 9 0
BBX 9 11 0 0
BITMAP
1F00
2080
4000
4000
FC00
4000
FC00
4000
4000
2080
1F00
ENDCHAR
STARTCHAR afii61248
ENCODING 8453
SWIDTH 885 0
DWIDTH 14 0
BBX 12 11 1 0
BITMAP
7040
8880
8080
8100
8A00
74E0
0510
0910
1110
1110
20E0
ENDCHAR
STARTCHAR afii61289
ENCODING 8467
SWIDTH 323 0
DWIDTH 5 0
BBX 4 11 0 0
BITMAP
20
50
50
50
50
50
60
C0
40
50
20
ENDCHAR
STARTCHAR afii61352
ENCODING 8470
SWIDTH 1072 0
DWIDTH 17 0
BBX 15 11 1 0
BITMAP
8100
C100
C11C
A122
9122
9122
8922
8522
851C
8300
813E
ENDCHAR
STARTCHAR trademark
ENCODING 8482
SWIDTH 1000 0
DWIDTH 16 0
BBX 13 6 1 5
BITMAP
FA08
2318
2318
22A8
22A8
2248
ENDCHAR
STARTCHAR Omega
ENCODING 8486
SWIDTH 768 0
DWIDTH 12 0
BBX 10 11 1 0
BITMAP
1E00
6180
4080
8040
8040
8040
8040
4080
6180
1200
F3C0
ENDCHAR
STARTCHAR estimated
ENCODING 8494
SWIDTH 600 0
DWIDTH 10 0
BBX 8 9 1 0
BITMAP
3C
42
C3
C3
FF
C0
C0
42
3C
ENDCHAR
STARTCHAR oneeighth
ENCODING 8539
SWIDTH 833 0
DWIDTH 13 0
BBX 13 11 0 0
BITMAP
6040
A080
2080
2100
2170
2288
FC88
0470
0888
0888
1070
ENDCHAR
STARTCHAR threeeighths
ENCODING 8540
SWIDTH 833 0
DWIDTH 13 0
BBX 13 11 0 0
BITMAP
7040
8880
0880
3100
0970
8A88
7488
0470
0888
0888
1070
ENDCHAR
STARTCHAR fiveeighths
ENCODING 8541
SWIDTH 833 0
DWIDTH 13 0
BBX 13 11 0 0
BITMAP
F840
8080
F080
0900
0970
8A88
7488
0470
0888
0888
1070
ENDCHAR
STARTCHAR seveneighths
ENCODING 8542
SWIDTH 833 0
DWIDTH 13 0
BBX 12 11 1 0
BITMAP
F880
0900
1100
2200
22E0
4510
4910
08E0
1110
1110
20E0
ENDCHAR
STARTCHAR arrowleft
ENCODING 8592
SWIDTH 1000 0
DWIDTH 16 0
BBX 9 5 3 0
BITMAP
2000
4000
FF80
4000
2000
ENDCHAR
STARTCHAR arrowup
ENCODING 8593
SWIDTH 500 0
DWIDTH 8 0
BBX 5 9 2 0
BITMAP
20
70
A8
20
20
20
20
20
20
ENDCHAR
STARTCHAR arrowright
ENCODING 8594
SWIDTH 1000 0
DWIDTH 16 0
BBX 9 5 3 0
BITMAP
0200
0100
FF80
0100
0200
ENDCHAR
STARTCHAR arrowdown
ENCODING 8595
SWIDTH 500 0
DWIDTH 8 0
BBX 5 9 2 0
BITMAP
20
20
20
20
20
20
A8
70
20
ENDCHAR
STARTCHAR arrowboth
ENCODING 8596
SWIDTH 1000 0
DWIDTH 16 0
BBX 9 5 3 0
BITMAP
2200
4100
FF80
4100
2200
ENDCHAR
STARTCHAR arrowupdn
ENCODING 8597
SWIDTH 500 0
DWIDTH 8 0
BBX 5 9 2 0
BITMAP
20
70
A8
20
20
20
A8
70
20
ENDCHAR
STARTCHAR arrowupdnbse
ENCODING 8616
SWIDTH 500 0
DWIDTH 8 0
BBX 5 11 2 -2
BITMAP
20
70
A8
20
20
20
A8
70
20
00
F8
ENDCHAR
STARTCHAR partialdiff
ENCODING 8706
SWIDTH 494 0
DWIDTH 8 0
BBX 7 12 1 0
BITMAP
38
04
02
02
1A
66
42
82
82
84
88
70
ENDCHAR
STARTCHAR Delta
ENCODING 8710
SWIDTH 611 0
DWIDTH 10 0
BBX 9 11 0 0
BITMAP
0800
1400
1400
2400
2200
2200
4100
4100
4100
8080
FF80
ENDCHAR
STARTCHAR product
ENCODING 8719
SWIDTH 823 0
DWIDTH 13 0
BBX 9 14 2 -3
BITMAP
FF80
8080
8080
8080
8080
8080
8080
8080
8080
8080
8080
8080
8080
8080
ENDCHAR
STARTCHAR summation
ENCODING 8721
SWIDTH 712 0
DWIDTH 11 0
BBX 9 14 1 -3
BITMAP
FF80
8000
4000
2000
1000
0800
0400
0400
0800
1000
2000
4000
8000
FF80
ENDCHAR
STARTCHAR minus
ENCODING 8722
SWIDTH 583 0
DWIDTH 9 0
BBX 7 1 1 5
BITMAP
FE
ENDCHAR
STARTCHAR fraction.dup4
ENCODING 8725
SWIDTH 166 0
DWIDTH 3 0
BBX 7 11 -2 0
BITMAP
02
04
04
08
08
10
20
20
40
40
80
ENDCHAR
STARTCHAR periodcentered.dup5
ENCODING 8729
SWIDTH 277 0
DWIDTH 4 0
BBX 1 2 1 4
BITMAP
80
80
ENDCHAR
STARTCHAR radical
ENCODING 8730
SWIDTH 548 0
DWIDTH 9 0
BBX 9 13 0 0
BITMAP
0080
0080
0100
0100
0100
0200
E200
2200
2400
1400
1800
0800
0800
ENDCHAR
STARTCHAR infinity
ENCODING 8734
SWIDTH 712 0
DWIDTH 11 0
BBX 9 6 1 2
BITMAP
6300
9480
8880
8880
9480
6300
ENDCHAR
STARTCHAR orthogonal
ENCODING 8735
SWIDTH 979 0
DWIDTH 16 0
BBX 10 10 3 0
BITMAP
8000
8000
8000
8000
8000
8000
8000
8000
8000
FFC0
ENDCHAR
STARTCHAR intersection
ENCODING 8745
SWIDTH 718 0
DWIDTH 12 0
BBX 8 8 2 0
BITMAP
3C
42
81
81
81
81
81
81
ENDCHAR
STARTCHAR integral
ENCODING 8747
SWIDTH 273 0
DWIDTH 4 0
BBX 5 15 -1 -3
BITMAP
18
20
20
20
20
20
20
20
20
20
20
20
20
20
C0
ENDCHAR
STARTCHAR approxequal
ENCODING 8776
SWIDTH 548 0
DWIDTH 9 0
BBX 7 6 1 3
BITMAP
60
92
0C
60
92
0C
ENDCHAR
STARTCHAR notequal
ENCODING 8800
SWIDTH 548 0
DWIDTH 9 0
BBX 7 9 1 1
BITMAP
04
08
FE
10
10
20
FE
40
40
ENDCHAR
STARTCHAR equivalence
ENCODING 8801
SWIDTH 583 0
DWIDTH 9 0
BBX 8 7 1 2
BITMAP
FF
00
00
FF
00
00
FF
ENDCHAR
STARTCHAR lessequal
ENCODING 8804
SWIDTH 548 0
DWIDTH 9 0
BBX 7 9 1 0
BITMAP
02
1C
60
80
60
1C
02
00
FE
ENDCHAR
STARTCHAR greaterequal
ENCODING 8805
SWIDTH 548 0
DWIDTH 9 0
BBX 7 9 1 0
BITMAP
80
70
0C
02
0C
70
80
00
FE
ENDCHAR
STARTCHAR house
ENCODING 8962
SWIDTH 604 0
DWIDTH 10 0
BBX 7 9 1 0
BITMAP
10
28
44
82
82
82
82
82
FE
ENDCHAR
STARTCHAR revlogicalnot
ENCODING 8976
SWIDTH 583 0
DWIDTH 9 0
BBX 8 5 1 1
BITMAP
FF
80
80
80
80
ENDCHAR
STARTCHAR integraltp
ENCODING 8992
SWIDTH 604 0
DWIDTH 10 0
BBX 3 18 4 -5
BITMAP
60
A0
80
80
80
80
80
80
80
80
80
80
80
80
80
80
80
80
ENDCHAR
STARTCHAR integralbt
ENCODING 8993
SWIDTH 604 0
DWIDTH 10 0
BBX 3 18 2 -5
BITMAP
20
20
20
20
20
20
20
20
20
20
20
20
20
20
20
20
A0
C0
ENDCHAR
STARTCHAR SF100000
ENCODING 9472
SWIDTH 708 0
DWIDTH 11 0
BBX 11 1 0 4
BITMAP
FFE0
ENDCHAR
STARTCHAR SF110000
ENCODING 9474
SWIDTH 625 0
DWIDTH 10 0
BBX 1 20 5 -5
BITMAP
80
80
80
80
80
80
80
80
80
80
80
80
80
80
80
80
80
80
80
80
ENDCHAR
STARTCHAR SF010000
ENCODING 9484
SWIDTH 708 0
DWIDTH 11 0
BBX 6 10 5 -5
BITMAP
FC
80
80
80
80
80
80
80
80
80
ENDCHAR
STARTCHAR SF030000
ENCODING 9488
SWIDTH 708 0
DWIDTH 11 0
BBX 6 10 0 -5
BITMAP
FC
04
04
04
04
04
04
04
04
04
ENDCHAR
STARTCHAR SF020000
ENCODING 9492
SWIDTH 708 0
DWIDTH 11 0
BBX 6 11 5 4
BITMAP
80
80
80
80
80
80
80
80
80
80
FC
ENDCHAR
STARTCHAR SF040000
ENCODING 9496
SWIDTH 708 0
DWIDTH 11 0
BBX 6 11 0 4
BITMAP
04
04
04
04
04
04
04
04
04
04
FC
ENDCHAR
STARTCHAR SF080000
ENCODING 9500
SWIDTH 708 0
DWIDTH 11 0
BBX 6 20 5 -5
BITMAP
80
80
80
80
80
80
80
80
80
80
FC
80
80
80
80
80
80
80
80
80
ENDCHAR
STARTCHAR SF090000
ENCODING 9508
SWIDTH 708 0
DWIDTH 11 0
BBX 6 20 0 -5
BITMAP
04
04
04
04
04
04
04
04
04
04
FC
04
04
04
04
04
04
04
04
04
ENDCHAR
STARTCHAR SF060000
ENCODING 9516
SWIDTH 708 0
DWIDTH 11 0
BBX 11 10 0 -5
BITMAP
FFE0
0400
0400
0400
0400
0400
0400
0400
0400
0400
ENDCHAR
STARTCHAR SF070000
ENCODING 9524
SWIDTH 708 0
DWIDTH 11 0
BBX 11 11 0 4
BITMAP
0400
0400
0400
0400
0400
0400
0400
0400
0400
0400
FFE0
ENDCHAR
STARTCHAR SF050000
ENCODING 9532
SWIDTH 708 0
DWIDTH 11 0
BBX 11 20 0 -5
BITMAP
0400
0400
0400
0400
0400
0400
0400
0400
0400
0400
FFE0
0400
0400
0400
0400
0400
0400
0400
0400
0400
ENDCHAR
STARTCHAR SF430000
ENCODING 9552
SWIDTH 708 0
DWIDTH 11 0
BBX 11 4 0 3
BITMAP
FFE0
0000
0000
FFE0
ENDCHAR
STARTCHAR SF240000
ENCODING 9553
SWIDTH 708 0
DWIDTH 11 0
BBX 4 20 4 -5
BITMAP
90
90
90
90
90
90
90
90
90
90
90
90
90
90
90
90
90
90
90
90
ENDCHAR
STARTCHAR SF510000
ENCODING 9554
SWIDTH 708 0
DWIDTH 11 0
BBX 6 12 5 -5
BITMAP
FC
80
80
FC
80
80
80
80
80
80
80
80
ENDCHAR
STARTCHAR SF520000
ENCODING 9555
SWIDTH 708 0
DWIDTH 11 0
BBX 7 10 4 -5
BITMAP
FE
90
90
90
90
90
90
90
90
90
ENDCHAR
STARTCHAR SF390000
ENCODING 9556
SWIDTH 708 0
DWIDTH 11 0
BBX 7 12 4 -5
BITMAP
FE
80
80
9E
90
90
90
90
90
90
90
90
ENDCHAR
STARTCHAR SF220000
ENCODING 9557
SWIDTH 708 0
DWIDTH 11 0
BBX 6 12 0 -5
BITMAP
FC
04
04
FC
04
04
04
04
04
04
04
04
ENDCHAR
STARTCHAR SF210000
ENCODING 9558
SWIDTH 708 0
DWIDTH 11 0
BBX 8 10 0 -5
BITMAP
FF
09
09
09
09
09
09
09
09
09
ENDCHAR
STARTCHAR SF250000
ENCODING 9559
SWIDTH 708 0
DWIDTH 11 0
BBX 8 12 0 -5
BITMAP
FF
01
01
F9
09
09
09
09
09
09
09
09
ENDCHAR
STARTCHAR SF500000
ENCODING 9560
SWIDTH 708 0
DWIDTH 11 0
BBX 6 12 5 3
BITMAP
80
80
80
80
80
80
80
80
FC
80
80
FC
ENDCHAR
STARTCHAR SF490000
ENCODING 9561
SWIDTH 708 0
DWIDTH 11 0
BBX 7 11 4 4
BITMAP
90
90
90
90
90
90
90
90
90
90
FE
ENDCHAR
STARTCHAR SF380000
ENCODING 9562
SWIDTH 708 0
DWIDTH 11 0
BBX 7 12 4 3
BITMAP
90
90
90
90
90
90
90
90
9E
80
80
FE
ENDCHAR
STARTCHAR SF280000
ENCODING 9563
SWIDTH 708 0
DWIDTH 11 0
BBX 6 12 0 3
BITMAP
04
04
04
04
04
04
04
04
FC
04
04
FC
ENDCHAR
STARTCHAR SF270000
ENCODING 9564
SWIDTH 708 0
DWIDTH 11 0
BBX 8 11 0 4
BITMAP
09
09
09
09
09
09
09
09
09
09
FF
ENDCHAR
STARTCHAR SF260000
ENCODING 9565
SWIDTH 708 0
DWIDTH 11 0
BBX 8 12 0 3
BITMAP
09
09
09
09
09
09
09
09
F9
01
01
FF
ENDCHAR
STARTCHAR SF360000
ENCODING 9566
SWIDTH 708 0
DWIDTH 11 0
BBX 6 20 5 -5
BITMAP
80
80
80
80
80
80
80
80
FC
80
80
FC
80
80
80
80
80
80
80
80
ENDCHAR
STARTCHAR SF370000
ENCODING 9567
SWIDTH 708 0
DWIDTH 11 0
BBX 7 20 4 -5
BITMAP
90
90
90
90
90
90
90
90
90
90
9E
90
90
90
90
90
90
90
90
90
ENDCHAR
STARTCHAR SF420000
ENCODING 9568
SWIDTH 708 0
DWIDTH 11 0
BBX 7 20 4 -5
BITMAP
90
90
90
90
90
90
90
90
9E
80
80
9E
90
90
90
90
90
90
90
90
ENDCHAR
STARTCHAR SF190000
ENCODING 9569
SWIDTH 708 0
DWIDTH 11 0
BBX 6 20 0 -5
BITMAP
04
04
04
04
04
04
04
04
FC
04
04
FC
04
04
04
04
04
04
04
04
ENDCHAR
STARTCHAR SF200000
ENCODING 9570
SWIDTH 708 0
DWIDTH 11 0
BBX 8 20 0 -5
BITMAP
09
09
09
09
09
09
09
09
09
09
F9
09
09
09
09
09
09
09
09
09
ENDCHAR
STARTCHAR SF230000
ENCODING 9571
SWIDTH 708 0
DWIDTH 11 0
BBX 8 20 0 -5
BITMAP
09
09
09
09
09
09
09
09
F9
01
01
F9
09
09
09
09
09
09
09
09
ENDCHAR
STARTCHAR SF470000
ENCODING 9572
SWIDTH 708 0
DWIDTH 11 0
BBX 11 12 0 -5
BITMAP
FFE0
0000
0000
FFE0
0400
0400
0400
0400
0400
0400
0400
0400
ENDCHAR
STARTCHAR SF480000
ENCODING 9573
SWIDTH 708 0
DWIDTH 11 0
BBX 11 10 0 -5
BITMAP
FFE0
0900
0900
0900
0900
0900
0900
0900
0900
0900
ENDCHAR
STARTCHAR SF410000
ENCODING 9574
SWIDTH 708 0
DWIDTH 11 0
BBX 11 12 0 -5
BITMAP
FFE0
0000
0000
F9E0
0900
0900
0900
0900
0900
0900
0900
0900
ENDCHAR
STARTCHAR SF450000
ENCODING 9575
SWIDTH 708 0
DWIDTH 11 0
BBX 11 12 0 3
BITMAP
0400
0400
0400
0400
0400
0400
0400
0400
FFE0
0000
0000
FFE0
ENDCHAR
STARTCHAR SF460000
ENCODING 9576
SWIDTH 708 0
DWIDTH 11 0
BBX 11 11 0 4
BITMAP
0900
0900
0900
0900
0900
0900
0900
0900
0900
0900
FFE0
ENDCHAR
STARTCHAR SF400000
ENCODING 9577
SWIDTH 708 0
DWIDTH 11 0
BBX 11 12 0 3
BITMAP
0900
0900
0900
0900
0900
0900
0900
0900
F9E0
0000
0000
FFE0
ENDCHAR
STARTCHAR SF540000
ENCODING 9578
SWIDTH 708 0
DWIDTH 11 0
BBX 11 20 0 -5
BITMAP
0400
0400
0400
0400
0400
0400
0400
0400
FFE0
0400
0400
FFE0
0400
0400
0400
0400
0400
0400
0400
0400
ENDCHAR
STARTCHAR SF530000
ENCODING 9579
SWIDTH 708 0
DWIDTH 11 0
BBX 11 20 0 -5
BITMAP
0900
0900
0900
0900
0900
0900
0900
0900
0900
0900
FFE0
0900
0900
0900
0900
0900
0900
0900
0900
0900
ENDCHAR
STARTCHAR SF440000
ENCODING 9580
SWIDTH 708 0
DWIDTH 11 0
BBX 11 20 0 -5
BITMAP
0900
0900
0900
0900
0900
0900
0900
0900
F9E0
0000
0000
F9E0
0900
0900
0900
0900
0900
0900
0900
0900
ENDCHAR
STARTCHAR upblock
ENCODING 9600
SWIDTH 708 0
DWIDTH 11 0
BBX 11 10 0 5
BITMAP
FFE0
FFE0
FFE0
FFE0
FFE0
FFE0
FFE0
FFE0
FFE0
FFE0
ENDCHAR
STARTCHAR dnblock
ENCODING 9604
SWIDTH 708 0
DWIDTH 11 0
BBX 11 10 0 -5
BITMAP
FFE0
FFE0
FFE0
FFE0
FFE0
FFE0
FFE0
FFE0
FFE0
FFE0
ENDCHAR
STARTCHAR block
ENCODING 9608
SWIDTH 708 0
DWIDTH 11 0
BBX 11 20 0 -5
BITMAP
FFE0
FFE0
FFE0
FFE0
FFE0
FFE0
FFE0
FFE0
FFE0
FFE0
FFE0
FFE0
FFE0
FFE0
FFE0
FFE0
FFE0
FFE0
FFE0
FFE0
ENDCHAR
STARTCHAR lfblock
ENCODING 9612
SWIDTH 708 0
DWIDTH 11 0
BBX 6 20 0 -5
BITMAP
FC
FC
FC
FC
FC
FC
FC
FC
FC
FC
FC
FC
FC
FC
FC
FC
FC
FC
FC
FC
ENDCHAR
STARTCHAR rtblock
ENCODING 9616
SWIDTH 708 0
DWIDTH 11 0
BBX 5 20 6 -5
BITMAP
F8
F8
F8
F8
F8
F8
F8
F8
F8
F8
F8
F8
F8
F8
F8
F8
F8
F8
F8
F8
ENDCHAR
STARTCHAR ltshade
ENCODING 9617
SWIDTH 708 0
DWIDTH 11 0
BBX 10 17 1 -4
BITMAP
9240
2480
0000
9240
2480
0000
9240
2480
0000
9240
2480
0000
9240
2480
0000
9240
2480
ENDCHAR
STARTCHAR shade
ENCODING 9618
SWIDTH 708 0
DWIDTH 11 0
BBX 11 16 0 -4
BITMAP
96A0
0000
6940
96A0
0000
6940
96A0
0000
6940
96A0
0000
6940
96A0
0000
6940
96A0
ENDCHAR
STARTCHAR dkshade
ENCODING 9619
SWIDTH 729 0
DWIDTH 12 0
BBX 12 18 0 -5
BITMAP
FFF0
B5A0
FFF0
6B50
B5A0
FFF0
6B50
B5A0
FFF0
6B50
B5A0
FFF0
6B50
B5A0
FFF0
6B50
B5A0
FFF0
ENDCHAR
STARTCHAR filledbox
ENCODING 9632
SWIDTH 604 0
DWIDTH 10 0
BBX 8 8 1 1
BITMAP
FF
FF
FF
FF
FF
FF
FF
FF
ENDCHAR
STARTCHAR H22073
ENCODING 9633
SWIDTH 604 0
DWIDTH 10 0
BBX 10 10 0 0
BITMAP
FFC0
8040
8040
8040
8040
8040
8040
8040
8040
FFC0
ENDCHAR
STARTCHAR H18543
ENCODING 9642
SWIDTH 354 0
DWIDTH 6 0
BBX 4 4 1 3
BITMAP
F0
F0
F0
F0
ENDCHAR
STARTCHAR H18551
ENCODING 9643
SWIDTH 354 0
DWIDTH 6 0
BBX 4 4 1 3
BITMAP
F0
90
90
F0
ENDCHAR
STARTCHAR filledrect
ENCODING 9644
SWIDTH 1000 0
DWIDTH 16 0
BBX 16 5 0 0
BITMAP
FFFF
FFFF
FFFF
FFFF
FFFF
ENDCHAR
STARTCHAR triagup
ENCODING 9650
SWIDTH 989 0
DWIDTH 16 0
BBX 9 9 3 0
BITMAP
0800
0C00
1C00
1E00
3E00
3F00
7F00
7F80
FF80
ENDCHAR
STARTCHAR triagrt
ENCODING 9658
SWIDTH 989 0
DWIDTH 16 0
BBX 10 9 3 0
BITMAP
C000
F000
FC00
FF00
FFC0
FF00
FC00
F000
C000
ENDCHAR
STARTCHAR triagdn
ENCODING 9660
SWIDTH 989 0
DWIDTH 16 0
BBX 8 8 4 1
BITMAP
FF
FF
7E
7E
3C
3C
18
18
ENDCHAR
STARTCHAR triaglf
ENCODING 9668
SWIDTH 989 0
DWIDTH 16 0
BBX 10 9 3 0
BITMAP
00C0
03C0
0FC0
3FC0
FFC0
3FC0
0FC0
03C0
00C0
ENDCHAR
STARTCHAR lozenge
ENCODING 9674
SWIDTH 494 0
DWIDTH 8 0
BBX 8 11 0 0
BITMAP
18
18
24
42
42
81
42
42
24
18
18
ENDCHAR
STARTCHAR circle
ENCODING 9675
SWIDTH 604 0
DWIDTH 10 0
BBX 7 7 1 1
BITMAP
38
44
82
82
82
44
38
ENDCHAR
STARTCHAR H18533
ENCODING 9679
SWIDTH 604 0
DWIDTH 10 0
BBX 7 7 1 1
BITMAP
38
7C
FE
FE
FE
7C
38
ENDCHAR
STARTCHAR invbullet
ENCODING 9688
SWIDTH 604 0
DWIDTH 10 0
BBX 9 9 0 0
BITMAP
FF80
E380
C180
8080
8080
8080
C180
E380
FF80
ENDCHAR
STARTCHAR invcircle
ENCODING 9689
SWIDTH 604 0
DWIDTH 10 0
BBX 9 9 0 0
BITMAP
FF80
E380
DD80
BE80
BE80
BE80
DD80
E380
FF80
ENDCHAR
STARTCHAR openbullet
ENCODING 9702
SWIDTH 354 0
DWIDTH 6 0
BBX 4 4 1 3
BITMAP
60
90
90
60
ENDCHAR
STARTCHAR smileface
ENCODING 9786
SWIDTH 1020 0
DWIDTH 16 0
BBX 10 10 3 0
BITMAP
1E00
6180
4080
A140
8040
8040
A140
5E80
6180
1E00
ENDCHAR
STARTCHAR invsmileface
ENCODING 9787
SWIDTH 1052 0
DWIDTH 17 0
BBX 10 10 4 0
BITMAP
1E00
7F80
7F80
DEC0
FFC0
FFC0
DEC0
6180
7F80
1E00
ENDCHAR
STARTCHAR sun
ENCODING 9788
SWIDTH 916 0
DWIDTH 15 0
BBX 11 11 2 -2
BITMAP
0400
4440
2E80
1100
2080
E0E0
2080
1100
2E80
4440
0400
ENDCHAR
STARTCHAR female
ENCODING 9792
SWIDTH 750 0
DWIDTH 12 0
BBX 5 9 4 0
BITMAP
70
C8
88
88
D8
70
F8
20
20
ENDCHAR
STARTCHAR male
ENCODING 9794
SWIDTH 750 0
DWIDTH 12 0
BBX 7 8 3 0
BITMAP
06
06
78
C8
88
88
C8
70
ENDCHAR
STARTCHAR spade
ENCODING 9824
SWIDTH 531 0
DWIDTH 8 0
BBX 7 10 0 0
BITMAP
10
10
38
7C
7C
FE
FE
FE
10
38
ENDCHAR
STARTCHAR club
ENCODING 9827
SWIDTH 656 0
DWIDTH 10 0
BBX 10 10 0 0
BITMAP
1C00
1E00
1E00
7F80
FFC0
FFC0
FFC0
7B80
0C00
1E00
ENDCHAR
STARTCHAR heart
ENCODING 9829
SWIDTH 593 0
DWIDTH 10 0
BBX 9 9 0 0
BITMAP
7700
F780
FF80
7F00
7F00
3E00
1C00
0800
0800
ENDCHAR
STARTCHAR diamond
ENCODING 9830
SWIDTH 510 0
DWIDTH 8 0
BBX 7 9 1 0
BITMAP
10
38
38
7C
FE
7C
38
38
10
ENDCHAR
STARTCHAR musicalnote
ENCODING 9834
SWIDTH 500 0
DWIDTH 8 0
BBX 5 9 2 0
BITMAP
20
30
30
28
28
28
20
E0
C0
ENDCHAR
STARTCHAR musicalnotedbl
ENCODING 9835
SWIDTH 750 0
DWIDTH 12 0
BBX 8 9 2 0
BITMAP
03
3D
27
39
21
21
21
E7
C6
ENDCHAR
STARTCHAR uniF001
ENCODING 61441
SWIDTH 500 0
DWIDTH 8 0
BBX 7 12 0 0
BITMAP
72
40
40
F2
42
42
42
42
42
42
42
42
ENDCHAR
STARTCHAR uniF002
ENCODING 61442
SWIDTH 500 0
DWIDTH 8 0
BBX 7 12 0 0
BITMAP
72
42
42
F2
42
42
42
42
42
42
42
42
ENDCHAR
STARTCHAR uniF005
ENCODING 61445
SWIDTH 333 0
DWIDTH 5 0
BBX 3 3 1 -4
BITMAP
C0
20
C0
ENDCHAR
STARTCHAR uniF001.dup6
ENCODING 64257
SWIDTH 500 0
DWIDTH 8 0
BBX 7 12 0 0
BITMAP
72
40
40
F2
42
42
42
42
42
42
42
42
ENDCHAR
STARTCHAR uniF002.dup7
ENCODING 64258
SWIDTH 500 0
DWIDTH 8 0
BBX 7 12 0 0
BITMAP
72
42
42
F2
42
42
42
42
42
42
42
42
ENDCHAR
STARTCHAR .notdef
ENCODING -1
SWIDTH 750 0
DWIDTH 12 0
BBX 9 11 2 0
BITMAP
FF80
8080
8080
8080
8080
8080
8080
8080
8080
8080
FF80
ENDCHAR
STARTCHAR .null
ENCODING -1
SWIDTH 0 0
DWIDTH 0 0
BBX 1 1 0 0
BITMAP
00
ENDCHAR
STARTCHAR nonmarkingreturn
ENCODING -1
SWIDTH 277 0
DWIDTH 4 0
BBX 1 1 0 0
BITMAP
00
ENDCHAR
STARTCHAR middot
ENCODING -1
SWIDTH 333 0
DWIDTH 5 0
BBX 1 2 1 4
BITMAP
80
80
ENDCHAR
STARTCHAR uniF004
ENCODING -1
SWIDTH 333 0
DWIDTH 5 0
BBX 2 3 0 -4
BITMAP
40
40
80
ENDCHAR
STARTCHAR uni2074
ENCODING -1
SWIDTH 333 0
DWIDTH 5 0
BBX 5 7 0 4
BITMAP
10
30
50
90
F8
10
10
ENDCHAR
STARTCHAR uni2075
ENCODING -1
SWIDTH 333 0
DWIDTH 5 0
BBX 5 7 0 4
BITMAP
F8
80
F0
08
08
88
70
ENDCHAR
STARTCHAR uni2077
ENCODING -1
SWIDTH 333 0
DWIDTH 5 0
BBX 5 7 0 4
BITMAP
F8
08
10
20
20
40
40
ENDCHAR
STARTCHAR uni2078
ENCODING -1
SWIDTH 333 0
DWIDTH 5 0
BBX 5 7 0 4
BITMAP
70
88
88
70
88
88
70
ENDCHAR
STARTCHAR glyph571
ENCODING -1
SWIDTH 333 0
DWIDTH 5 0
BBX 6 3 0 10
BITMAP
84
84
78
ENDCHAR
STARTCHAR glyph572
ENCODING -1
SWIDTH 222 0
DWIDTH 4 0
BBX 1 3 1 8
BITMAP
80
80
80
ENDCHAR
STARTCHAR glyph573
ENCODING -1
SWIDTH 222 0
DWIDTH 4 0
BBX 1 3 1 10
BITMAP
80
80
80
ENDCHAR
STARTCHAR glyph574
ENCODING -1
SWIDTH 293 0
DWIDTH 5 0
BBX 3 3 1 12
BITMAP
80
40
20
ENDCHAR
STARTCHAR glyph575
ENCODING -1
SWIDTH 293 0
DWIDTH 5 0
BBX 3 3 1 12
BITMAP
20
40
80
ENDCHAR
STARTCHAR glyph576
ENCODING -1
SWIDTH 324 0
DWIDTH 5 0
BBX 5 3 0 12
BITMAP
20
50
88
ENDCHAR
STARTCHAR glyph577
ENCODING -1
SWIDTH 324 0
DWIDTH 5 0
BBX 5 3 0 12
BITMAP
88
50
20
ENDCHAR
STARTCHAR glyph578
ENCODING -1
SWIDTH 315 0
DWIDTH 5 0
BBX 4 1 0 12
BITMAP
90
ENDCHAR
STARTCHAR glyph579
ENCODING -1
SWIDTH 328 0
DWIDTH 5 0
BBX 6 2 0 12
BITMAP
64
98
ENDCHAR
STARTCHAR glyph580
ENCODING -1
SWIDTH 397 0
DWIDTH 6 0
BBX 6 3 1 12
BITMAP
24
48
90
ENDCHAR
STARTCHAR glyph581
ENCODING -1
SWIDTH 285 0
DWIDTH 5 0
BBX 5 3 0 12
BITMAP
88
88
70
ENDCHAR
ENDFONT
